<svg xmlns="http://www.w3.org/2000/svg" xmlns:xlink="http://www.w3.org/1999/xlink" width="1080" zoomAndPan="magnify" viewBox="0 0 810 809.999993" height="1080" preserveAspectRatio="xMidYMid meet" version="1.0"><defs><g/><clipPath id="a4a4e4589d"><path d="M 243 243 L 567 243 L 567 567 L 243 567 Z M 243 243 " clip-rule="nonzero"/></clipPath></defs><g clip-path="url(#a4a4e4589d)"><path fill="#004aad" d="M 405.007812 243 C 449.746094 243 490.25 261.136719 519.566406 290.453125 C 548.882812 319.769531 567.019531 360.273438 567.019531 405.007812 C 567.019531 449.746094 548.882812 490.25 519.566406 519.566406 C 490.25 548.882812 449.746094 567.019531 405.007812 567.019531 C 360.273438 567.019531 319.769531 548.882812 290.453125 519.566406 C 261.132812 490.25 243 449.746094 243 405.007812 C 243 360.273438 261.132812 319.769531 290.453125 290.453125 C 319.769531 261.136719 360.273438 243 405.007812 243 " fill-opacity="1" fill-rule="nonzero"/></g><path fill="#f9a825" d="M 405.007812 265.699219 C 443.476562 265.699219 478.304688 281.292969 503.515625 306.503906 C 528.722656 331.714844 544.320312 366.539062 544.320312 405.007812 C 544.320312 443.480469 528.722656 478.304688 503.515625 503.515625 C 478.304688 528.722656 443.476562 544.320312 405.007812 544.320312 C 366.539062 544.320312 331.714844 528.722656 306.503906 503.515625 C 281.292969 478.304688 265.699219 443.476562 265.699219 405.007812 C 265.699219 366.539062 281.292969 331.714844 306.503906 306.503906 C 331.714844 281.292969 366.539062 265.699219 405.007812 265.699219 " fill-opacity="1" fill-rule="nonzero"/><path fill="#f5f5f5" d="M 429.109375 392.5 L 429.109375 465.703125 C 431.769531 464.015625 435.15625 461.382812 439.078125 457.292969 C 440.238281 455.796875 442.148438 454.945312 444.15625 455.230469 C 447.132812 455.65625 449.203125 458.414062 448.78125 461.390625 L 448.769531 461.390625 C 447.46875 470.503906 440.863281 482.3125 432.09375 491.164062 C 424.296875 499.023438 414.613281 504.777344 405.007812 504.777344 C 398.375 504.777344 392.351562 502.066406 387.984375 497.703125 C 383.617188 493.335938 380.910156 487.3125 380.910156 480.675781 L 380.910156 407.472656 C 378.25 409.164062 374.859375 411.792969 370.941406 415.886719 C 369.777344 417.378906 367.871094 418.230469 365.863281 417.945312 C 362.886719 417.523438 360.8125 414.761719 361.238281 411.785156 L 361.246094 411.785156 C 362.546875 402.671875 369.152344 390.863281 377.925781 382.015625 C 385.722656 374.15625 395.402344 368.402344 405.007812 368.402344 C 411.640625 368.402344 417.667969 371.109375 422.03125 375.476562 C 426.398438 379.839844 429.109375 385.871094 429.109375 392.5 " fill-opacity="1" fill-rule="evenodd"/><path fill="#f5f5f5" d="M 398.816406 305.242188 C 405.855469 305.242188 412.230469 308.097656 416.84375 312.714844 C 421.460938 317.328125 424.316406 323.699219 424.316406 330.742188 C 424.316406 337.785156 421.460938 344.15625 416.84375 348.773438 C 412.230469 353.386719 405.855469 356.242188 398.816406 356.242188 C 391.773438 356.242188 385.402344 353.386719 380.785156 348.773438 C 376.167969 344.15625 373.316406 337.785156 373.316406 330.742188 C 373.316406 323.699219 376.167969 317.328125 380.785156 312.714844 C 385.402344 308.097656 391.773438 305.242188 398.816406 305.242188 " fill-opacity="1" fill-rule="evenodd"/><g fill="#004aad" fill-opacity="1"><g transform="translate(237.962876, 198.92046)"><g><path d="M 68.25 -0.546875 C 65.128906 -0.546875 62.164062 -1.324219 59.59375 -7.722656 L 40.871094 -53.664062 L 23.011719 -53.664062 L 26.363281 -45.238281 L 14.820312 -16.925781 C 10.21875 -5.695312 4.757812 -1.246094 0.3125 -0.546875 L 0.3125 0 L 25.972656 0 L 25.972656 -0.546875 C 17.082031 -0.546875 14.742188 -11.230469 17.394531 -20.902344 L 36.113281 -20.902344 L 40.871094 -9.046875 C 42.976562 -3.589844 39.78125 -0.546875 34.242188 -0.546875 L 34.242188 0 L 69.03125 0 L 69.03125 -0.546875 Z M 17.628906 -21.527344 C 17.863281 -22.386719 18.175781 -23.242188 18.484375 -24.023438 L 26.753906 -44.304688 L 35.878906 -21.527344 Z M 17.628906 -21.527344 "/></g></g></g><g fill="#004aad" fill-opacity="1"><g transform="translate(307.304937, 198.92046)"><g><path d="M 39.546875 -27.847656 C 54.835938 -28.78125 58.8125 -34.242188 58.8125 -41.339844 C 58.8125 -48.984375 53.976562 -53.664062 36.503906 -53.664062 L 2.496094 -53.664062 L 2.496094 -53.117188 L 3.742188 -53.117188 C 9.125 -53.117188 10.921875 -51.558594 10.921875 -44.226562 L 10.921875 -9.4375 C 10.921875 -2.105469 9.125 -0.546875 3.742188 -0.546875 L 2.496094 -0.546875 L 2.496094 0 L 37.90625 0 C 54.835938 0 60.996094 -5.148438 60.996094 -14.664062 C 60.996094 -22.152344 56.628906 -27.222656 39.546875 -27.847656 Z M 41.339844 -41.964844 C 41.339844 -33.304688 38.609375 -27.847656 29.953125 -27.847656 L 28.003906 -27.847656 L 28.003906 -53.117188 L 28.78125 -53.117188 C 37.441406 -53.117188 41.339844 -50.621094 41.339844 -41.964844 Z M 30.265625 -0.546875 L 28.003906 -0.546875 L 28.003906 -27.300781 L 29.953125 -27.300781 C 39.859375 -27.300781 43.523438 -23.710938 43.523438 -14.664062 C 43.523438 -5.539062 40.558594 -0.546875 30.265625 -0.546875 Z M 30.265625 -0.546875 "/></g></g></g><g fill="#004aad" fill-opacity="1"><g transform="translate(371.810987, 198.92046)"><g><path d="M 34.476562 1.246094 C 16.066406 1.246094 4.289062 -6.707031 4.289062 -27.066406 C 4.289062 -46.175781 16.066406 -54.910156 34.476562 -54.910156 C 52.882812 -54.910156 64.660156 -46.175781 64.660156 -27.066406 C 64.660156 -6.707031 52.882812 1.246094 34.476562 1.246094 Z M 34.476562 -54.210938 C 24.023438 -54.210938 22.074219 -45.863281 22.074219 -26.832031 C 22.074219 -6.550781 24.023438 0.546875 34.476562 0.546875 C 44.929688 0.546875 46.878906 -6.550781 46.878906 -26.832031 C 46.878906 -45.863281 44.929688 -54.210938 34.476562 -54.210938 Z M 34.476562 -54.210938 "/></g></g></g><g fill="#004aad" fill-opacity="1"><g transform="translate(440.763045, 198.92046)"><g><path d="M 71.605469 -53.664062 L 39.234375 -53.664062 L 39.234375 -53.117188 L 40.480469 -53.117188 C 44.695312 -53.117188 46.097656 -51.558594 46.097656 -44.226562 L 46.097656 -17.472656 C 46.097656 -5.773438 44.617188 0.546875 36.503906 0.546875 C 28.390625 0.546875 26.910156 -5.773438 26.910156 -17.472656 L 26.910156 -44.226562 C 26.910156 -51.558594 28.3125 -53.117188 32.527344 -53.117188 L 33.773438 -53.117188 L 33.773438 -53.664062 L 1.402344 -53.664062 L 1.402344 -53.117188 L 2.652344 -53.117188 C 8.035156 -53.117188 9.828125 -51.558594 9.828125 -44.226562 L 9.828125 -23.945312 C 9.828125 -5.929688 18.640625 1.246094 36.503906 1.246094 C 54.367188 1.246094 63.179688 -5.929688 63.179688 -23.945312 L 63.179688 -44.226562 C 63.179688 -51.558594 64.972656 -53.117188 70.355469 -53.117188 L 71.605469 -53.117188 Z M 71.605469 -53.664062 "/></g></g></g><g fill="#004aad" fill-opacity="1"><g transform="translate(513.771105, 198.92046)"><g><path d="M 55.613281 -29.328125 L 56.082031 -29.328125 L 55.300781 -53.664062 L 2.964844 -53.664062 L 2.183594 -29.328125 L 2.652344 -29.328125 C 4.757812 -39.15625 10.375 -50.542969 20.671875 -52.726562 L 20.671875 -9.4375 C 20.671875 -2.105469 18.875 -0.546875 14.585938 -0.546875 L 11.777344 -0.546875 L 11.777344 0 L 46.878906 0 L 46.878906 -0.546875 L 44.070312 -0.546875 C 39.46875 -0.546875 37.675781 -2.105469 37.675781 -9.4375 L 37.675781 -52.726562 C 47.890625 -50.464844 53.507812 -39.078125 55.613281 -29.328125 Z M 55.613281 -29.328125 "/></g></g></g></svg>