<svg xmlns="http://www.w3.org/2000/svg" xmlns:xlink="http://www.w3.org/1999/xlink" version="1.1" x="0px" y="0px" viewBox="0 0 256 256" style="enable-background:new 0 0 256 256;" xml:space="preserve">
<style type="text/css">
	.st0{display:none;}
	.st1{display:inline;}
	.st2{fill:none;stroke:#6B1D1D;stroke-width:0.5;stroke-miterlimit:10;}
	.st3{fill:#3A312A;}
	.st4{fill:#87796F;}
	.st5{fill:#D5DE58;}
	.st6{fill:#695B51;}
	.st7{fill:#FCE8CB;}
	.st8{fill:#F16C7A;}
	.st9{fill:#8AC6DD;}
	.st10{fill:#DECAAD;}
	.st11{fill:#D6DF58;}
	.st12{fill-rule:evenodd;clip-rule:evenodd;fill:#FCE8CB;}
	.st13{fill:#F5978A;}
	.st14{fill:#D7E057;}
	.st15{fill-rule:evenodd;clip-rule:evenodd;fill:#87796F;}
	.st16{fill:#6CA8BF;}
	.st17{fill:#B9C239;}
	.st18{fill:#D34E5C;}
	.st19{fill:#FAE6CA;}
	.st20{fill:#F8E4C8;}
	.st21{fill:#8AC5DC;}
	.st22{fill:#EF6D7A;}
	.st23{fill:#EB6E7A;}
	.st24{fill:#89C4DB;}
	.st25{fill-rule:evenodd;clip-rule:evenodd;fill:#F16C7A;}
	.st26{fill:#F7E3C7;}
	.st27{fill:#F6E2C6;}
	.st28{fill:#ED6E7A;}
	.st29{fill:#8AC3DA;}
	.st30{fill:#D5DC57;}
	.st31{fill-rule:evenodd;clip-rule:evenodd;fill:#D7E057;}
	.st32{fill-rule:evenodd;clip-rule:evenodd;fill:#F8E4C8;}
	.st33{fill:#D4DB56;}
	.st34{fill:#F59689;}
	.st35{fill:#DDC9AC;}
	.st36{fill:#D24E5C;}
	.st37{fill:#6A5C52;}
	.st38{fill:#6CA6BE;}
	.st39{fill:#B8C136;}
	.st40{fill-rule:evenodd;clip-rule:evenodd;fill:#FAE6CA;}
</style>
<g id="Layer_2" class="st0">
	<g class="st1">
		<g>
			<line class="st2" x1="0" y1="4.829" x2="256" y2="4.829"/>
			<line class="st2" x1="0" y1="16.56" x2="256" y2="16.56"/>
			<line class="st2" x1="0" y1="28.29" x2="256" y2="28.29"/>
			<line class="st2" x1="0" y1="40.021" x2="256" y2="40.021"/>
			<line class="st2" x1="0" y1="51.751" x2="256" y2="51.751"/>
			<line class="st2" x1="0" y1="63.482" x2="256" y2="63.482"/>
			<line class="st2" x1="0" y1="75.213" x2="256" y2="75.213"/>
			<line class="st2" x1="0" y1="86.943" x2="256" y2="86.943"/>
			<line class="st2" x1="0" y1="98.674" x2="256" y2="98.674"/>
			<line class="st2" x1="0" y1="110.404" x2="256" y2="110.404"/>
			<line class="st2" x1="0" y1="122.135" x2="256" y2="122.135"/>
			<line class="st2" x1="0" y1="133.865" x2="256" y2="133.865"/>
			<line class="st2" x1="0" y1="145.596" x2="256" y2="145.596"/>
			<line class="st2" x1="0" y1="157.326" x2="256" y2="157.326"/>
			<line class="st2" x1="0" y1="169.057" x2="256" y2="169.057"/>
			<line class="st2" x1="0" y1="180.788" x2="256" y2="180.788"/>
			<line class="st2" x1="0" y1="192.518" x2="256" y2="192.518"/>
			<line class="st2" x1="0" y1="204.249" x2="256" y2="204.249"/>
			<line class="st2" x1="0" y1="215.979" x2="256" y2="215.979"/>
			<line class="st2" x1="0" y1="227.71" x2="256" y2="227.71"/>
			<line class="st2" x1="0" y1="239.44" x2="256" y2="239.44"/>
			<line class="st2" x1="0" y1="251.171" x2="256" y2="251.171"/>
		</g>
		<g>
			<line class="st2" x1="251.171" y1="0" x2="251.171" y2="256"/>
			<line class="st2" x1="239.44" y1="0" x2="239.44" y2="256"/>
			<line class="st2" x1="227.71" y1="0" x2="227.71" y2="256"/>
			<line class="st2" x1="215.979" y1="0" x2="215.979" y2="256"/>
			<line class="st2" x1="204.249" y1="0" x2="204.249" y2="256"/>
			<line class="st2" x1="192.518" y1="0" x2="192.518" y2="256"/>
			<line class="st2" x1="180.788" y1="0" x2="180.788" y2="256"/>
			<line class="st2" x1="169.057" y1="0" x2="169.057" y2="256"/>
			<line class="st2" x1="157.326" y1="0" x2="157.326" y2="256"/>
			<line class="st2" x1="145.596" y1="0" x2="145.596" y2="256"/>
			<line class="st2" x1="133.865" y1="0" x2="133.865" y2="256"/>
			<line class="st2" x1="122.135" y1="0" x2="122.135" y2="256"/>
			<line class="st2" x1="110.404" y1="0" x2="110.404" y2="256"/>
			<line class="st2" x1="98.674" y1="0" x2="98.674" y2="256"/>
			<line class="st2" x1="86.943" y1="0" x2="86.943" y2="256"/>
			<line class="st2" x1="75.212" y1="0" x2="75.212" y2="256"/>
			<line class="st2" x1="63.482" y1="0" x2="63.482" y2="256"/>
			<line class="st2" x1="51.751" y1="0" x2="51.751" y2="256"/>
			<line class="st2" x1="40.021" y1="0" x2="40.021" y2="256"/>
			<line class="st2" x1="28.29" y1="0" x2="28.29" y2="256"/>
			<line class="st2" x1="16.56" y1="0" x2="16.56" y2="256"/>
			<line class="st2" x1="4.829" y1="0" x2="4.829" y2="256"/>
		</g>
	</g>
</g>
<g id="Layer_1">
	<g>
		<path class="st4" d="M222.145,180.568H33.355c-9.447,0-17.105-7.658-17.105-17.105V33.173c0-9.447,7.658-17.106,17.105-17.106    h188.789c9.447,0,17.105,7.658,17.105,17.106v130.289C239.25,172.909,231.592,180.568,222.145,180.568z"/>
		<path class="st3" d="M222.145,182.068H33.355c-10.259,0-18.605-8.346-18.605-18.605V33.173c0-10.259,8.347-18.605,18.605-18.605    h188.789c10.259,0,18.605,8.346,18.605,18.605v130.289C240.75,173.722,232.403,182.068,222.145,182.068z M33.355,17.568    c-8.604,0-15.605,7-15.605,15.605v130.289c0,8.605,7.001,15.605,15.605,15.605h188.789c8.604,0,15.605-7.001,15.605-15.605V33.173    c0-8.605-7.001-15.605-15.605-15.605H33.355z"/>
		<path class="st14" d="M28.861,115.877v40.271c0,6.583,5.337,11.92,11.92,11.92h173.938c6.583,0,11.92-5.337,11.92-11.92V40.488    c0-6.583-5.337-11.92-11.92-11.92H40.781c-6.583,0-11.92,5.337-11.92,11.92v62.167V115.877z"/>
		<path class="st3" d="M214.719,169.568H40.781c-7.4,0-13.42-6.02-13.42-13.42v-40.271c0-0.829,0.672-1.5,1.5-1.5    c0.828,0,1.5,0.671,1.5,1.5v40.271c0,5.746,4.675,10.42,10.42,10.42h173.938c5.745,0,10.42-4.674,10.42-10.42V40.488    c0-5.746-4.675-10.42-10.42-10.42H40.781c-5.745,0-10.42,4.674-10.42,10.42v62.167c0,0.829-0.672,1.5-1.5,1.5    c-0.828,0-1.5-0.671-1.5-1.5V40.488c0-7.4,6.02-13.42,13.42-13.42h173.938c7.399,0,13.42,6.02,13.42,13.42v115.66    C228.139,163.548,222.118,169.568,214.719,169.568z"/>
		<rect x="113.438" y="180.568" class="st4" width="28.625" height="35.593"/>
		<path class="st3" d="M142.062,217.661h-28.625c-0.828,0-1.5-0.671-1.5-1.5v-35.593c0-0.829,0.672-1.5,1.5-1.5h28.625    c0.828,0,1.5,0.671,1.5,1.5v35.593C143.562,216.99,142.891,217.661,142.062,217.661z M114.938,214.661h25.625v-32.593h-25.625    V214.661z"/>
		<path class="st4" d="M135.202,239.568h36.252c0-12.927-10.479-23.407-23.407-23.407h-40.593    c-12.927,0-23.407,10.479-23.407,23.407h37.584H135.202z"/>
		<path class="st3" d="M171.453,241.068h-36.252c-0.828,0-1.5-0.671-1.5-1.5s0.672-1.5,1.5-1.5h34.701    c-0.773-11.382-10.28-20.407-21.855-20.407h-40.594c-11.575,0-21.082,9.024-21.855,20.407h36.033c0.828,0,1.5,0.671,1.5,1.5    s-0.672,1.5-1.5,1.5H84.047c-0.828,0-1.5-0.671-1.5-1.5c0-13.733,11.173-24.907,24.906-24.907h40.594    c13.733,0,24.906,11.173,24.906,24.907C172.953,240.397,172.281,241.068,171.453,241.068z"/>
		<path class="st14" d="M47.421,203.402c0,0,3.408,12.659,13.222,13.246c0,0-13.1,4.525-13.321,14.202    c0,0-2.579-13.572-12.925-14.059C34.397,216.791,46.447,214.966,47.421,203.402z"/>
		<path class="st3" d="M47.321,232.349c-0.713,0-1.335-0.506-1.473-1.217c-0.023-0.124-2.494-12.417-11.522-12.842    c-0.771-0.037-1.388-0.651-1.428-1.421c-0.04-0.771,0.511-1.445,1.273-1.561c0.441-0.069,10.895-1.817,11.754-12.032    c0.062-0.725,0.635-1.301,1.359-1.367c0.736-0.061,1.394,0.399,1.584,1.102c0.031,0.116,3.259,11.626,11.863,12.141    c0.714,0.043,1.298,0.584,1.396,1.293c0.098,0.708-0.318,1.388-0.994,1.622c-0.121,0.042-12.118,4.31-12.312,12.818    c-0.018,0.767-0.61,1.396-1.375,1.459C47.405,232.348,47.363,232.349,47.321,232.349z M39.579,216.62    c3.879,1.969,6.231,5.746,7.588,8.876c2.026-4.021,5.941-6.787,8.948-8.427c-4.134-1.842-6.783-5.651-8.334-8.723    C45.988,212.707,42.511,215.215,39.579,216.62z"/>
		<path class="st14" d="M25.722,220.382c0,0,2.411,8.954,9.352,9.369c0,0-9.266,3.201-9.422,10.046c0,0-1.824-9.6-9.142-9.944    C16.51,229.853,25.034,228.562,25.722,220.382z"/>
		<path class="st3" d="M25.651,241.297c-0.714,0-1.337-0.507-1.473-1.22c-0.016-0.082-1.704-8.442-7.739-8.726    c-0.771-0.037-1.388-0.651-1.428-1.421c-0.04-0.77,0.511-1.445,1.274-1.561c0.296-0.047,7.363-1.243,7.942-8.114    c0.062-0.726,0.636-1.303,1.361-1.368c0.717-0.064,1.392,0.399,1.582,1.102l0,0c0.021,0.079,2.227,7.919,7.993,8.264    c0.714,0.043,1.299,0.585,1.396,1.294c0.097,0.709-0.32,1.388-0.996,1.622c-0.081,0.028-8.282,2.953-8.412,8.662    c-0.017,0.767-0.611,1.397-1.376,1.461C25.734,241.295,25.692,241.297,25.651,241.297z M21.132,229.77    c2.108,1.333,3.524,3.394,4.447,5.28c1.376-2.232,3.515-3.872,5.365-4.973c-2.287-1.269-3.885-3.35-4.941-5.224    C24.829,227.14,22.987,228.729,21.132,229.77z"/>
		<path class="st14" d="M25.722,193.725c0,0,2.411,8.954,9.352,9.369c0,0-9.266,3.201-9.422,10.046c0,0-1.824-9.6-9.142-9.944    C16.51,203.195,25.034,201.904,25.722,193.725z"/>
		<path class="st3" d="M25.651,214.64c-0.714,0-1.337-0.507-1.473-1.22c-0.016-0.082-1.704-8.442-7.739-8.726    c-0.771-0.037-1.388-0.651-1.428-1.421c-0.04-0.771,0.511-1.445,1.274-1.561c0.296-0.047,7.363-1.243,7.942-8.114    c0.062-0.726,0.636-1.303,1.361-1.368c0.712-0.061,1.392,0.4,1.582,1.103c0.038,0.138,2.249,7.92,7.993,8.263    c0.714,0.043,1.299,0.585,1.396,1.293c0.097,0.709-0.32,1.388-0.996,1.622c-0.081,0.028-8.282,2.952-8.412,8.662    c-0.017,0.767-0.611,1.398-1.376,1.461C25.734,214.638,25.692,214.64,25.651,214.64z M21.132,203.112    c2.108,1.332,3.524,3.394,4.447,5.28c1.376-2.233,3.515-3.872,5.365-4.973c-2.287-1.269-3.885-3.35-4.941-5.224    C24.829,200.482,22.987,202.071,21.132,203.112z"/>
		<path class="st19" d="M208.323,25.02c-25.794-10.685-54.777-10.685-80.572,0c0,35.989,0,71.979,0,107.968    c25.795-10.684,54.778-10.684,80.572,0C208.323,96.998,208.323,61.009,208.323,25.02z"/>
		<path class="st3" d="M208.323,134.488c-0.194,0-0.39-0.038-0.574-0.114c-25.607-10.607-53.816-10.607-79.424,0    c-0.461,0.192-0.991,0.141-1.407-0.139c-0.417-0.278-0.667-0.746-0.667-1.247V25.02c0-0.606,0.365-1.154,0.926-1.386    c26.35-10.914,55.371-10.914,81.721,0c0.56,0.232,0.926,0.779,0.926,1.386v107.968c0,0.501-0.25,0.969-0.667,1.247    C208.906,134.402,208.615,134.488,208.323,134.488z M168.037,123.417c13.118,0,26.237,2.451,38.786,7.351V26.027    c-25.053-10.104-52.52-10.104-77.572,0v104.741C141.8,125.867,154.919,123.417,168.037,123.417z"/>
		<path class="st19" d="M127.749,25.02c-25.795-10.685-54.777-10.685-80.572,0c0,35.989,0,71.979,0,107.968    c25.795-10.684,54.778-10.684,80.572,0C127.749,96.998,127.749,61.009,127.749,25.02z"/>
		<path class="st3" d="M127.749,134.488c-0.194,0-0.39-0.038-0.574-0.114c-25.607-10.607-53.816-10.607-79.424,0    c-0.462,0.192-0.991,0.141-1.407-0.139c-0.417-0.278-0.667-0.746-0.667-1.247V25.02c0-0.606,0.365-1.154,0.926-1.386    c26.35-10.914,55.371-10.914,81.721,0c0.561,0.232,0.926,0.779,0.926,1.386v107.968c0,0.501-0.25,0.969-0.667,1.247    C128.332,134.402,128.041,134.488,127.749,134.488z M87.463,123.417c13.118,0,26.237,2.451,38.786,7.351V26.027    c-25.053-10.104-52.52-10.104-77.572,0v104.741C61.226,125.867,74.345,123.417,87.463,123.417z"/>
		<path class="st3" d="M56.463,114.153c-0.642,0-1.234-0.414-1.434-1.058c-0.244-0.792,0.2-1.631,0.991-1.876    c20.566-6.346,42.313-6.345,62.885,0c0.791,0.244,1.235,1.084,0.991,1.875c-0.244,0.792-1.082,1.237-1.876,0.992    c-19.996-6.167-41.129-6.167-61.115,0C56.758,114.131,56.608,114.153,56.463,114.153z"/>
		<path class="st3" d="M137.462,114.013c-0.643,0-1.237-0.417-1.435-1.064c-0.24-0.792,0.207-1.63,0.999-1.871    c20.228-6.146,41.621-6.159,61.87-0.041c0.793,0.24,1.242,1.077,1.002,1.87c-0.239,0.793-1.081,1.24-1.869,1.002    c-19.681-5.946-40.475-5.934-60.13,0.039C137.754,113.992,137.606,114.013,137.462,114.013z"/>
		<path class="st3" d="M56.463,99.153c-0.642,0-1.234-0.414-1.434-1.058c-0.244-0.792,0.2-1.631,0.991-1.876    c20.566-6.346,42.313-6.345,62.885,0c0.791,0.244,1.235,1.084,0.991,1.875c-0.244,0.792-1.082,1.236-1.876,0.992    c-19.996-6.167-41.129-6.167-61.115,0C56.758,99.131,56.608,99.153,56.463,99.153z"/>
		<path class="st3" d="M137.462,99.013c-0.643,0-1.237-0.417-1.435-1.064c-0.24-0.792,0.207-1.63,0.999-1.871    c20.228-6.146,41.621-6.159,61.87-0.041c0.793,0.24,1.242,1.077,1.002,1.87c-0.239,0.793-1.081,1.239-1.869,1.002    c-19.681-5.946-40.475-5.934-60.13,0.039C137.754,98.992,137.606,99.013,137.462,99.013z"/>
		<path class="st3" d="M56.463,84.153c-0.642,0-1.234-0.414-1.434-1.058c-0.244-0.792,0.2-1.631,0.991-1.876    c20.566-6.346,42.313-6.344,62.885,0c0.791,0.244,1.235,1.084,0.991,1.875c-0.244,0.792-1.082,1.236-1.876,0.992    c-19.996-6.167-41.129-6.167-61.115,0C56.758,84.131,56.608,84.153,56.463,84.153z"/>
		<path class="st3" d="M137.462,84.013c-0.643,0-1.237-0.417-1.435-1.064c-0.24-0.792,0.207-1.63,0.999-1.871    c20.228-6.146,41.621-6.159,61.87-0.041c0.793,0.24,1.242,1.077,1.002,1.87c-0.239,0.794-1.081,1.239-1.869,1.002    c-19.681-5.947-40.475-5.933-60.13,0.039C137.754,83.992,137.606,84.013,137.462,84.013z"/>
		<path class="st3" d="M56.463,69.153c-0.642,0-1.234-0.414-1.434-1.058c-0.244-0.792,0.2-1.631,0.991-1.876    c20.566-6.346,42.313-6.345,62.885,0c0.791,0.244,1.235,1.084,0.991,1.875c-0.244,0.792-1.082,1.237-1.876,0.992    c-19.996-6.167-41.129-6.167-61.115,0C56.758,69.131,56.608,69.153,56.463,69.153z"/>
		<path class="st3" d="M137.462,69.013c-0.643,0-1.237-0.417-1.435-1.064c-0.24-0.792,0.207-1.63,0.999-1.871    c20.228-6.146,41.621-6.159,61.87-0.041c0.793,0.24,1.242,1.077,1.002,1.87c-0.239,0.793-1.081,1.24-1.869,1.002    c-19.681-5.946-40.475-5.933-60.13,0.039C137.754,68.992,137.606,69.013,137.462,69.013z"/>
		<path class="st3" d="M56.463,54.153c-0.642,0-1.234-0.414-1.434-1.058c-0.244-0.792,0.2-1.631,0.991-1.875    c20.566-6.346,42.313-6.345,62.885-0.001c0.791,0.244,1.235,1.084,0.991,1.876c-0.244,0.792-1.082,1.237-1.876,0.992    c-19.996-6.167-41.129-6.167-61.115,0C56.758,54.131,56.608,54.153,56.463,54.153z"/>
		<path class="st3" d="M137.462,54.013c-0.643,0-1.237-0.417-1.435-1.065c-0.24-0.792,0.207-1.63,0.999-1.871    c20.228-6.146,41.621-6.159,61.87-0.041c0.793,0.24,1.242,1.077,1.002,1.87c-0.239,0.794-1.081,1.24-1.869,1.002    c-19.681-5.946-40.475-5.934-60.13,0.039C137.754,53.992,137.606,54.013,137.462,54.013z"/>
		<path class="st3" d="M56.463,39.153c-0.642,0-1.234-0.414-1.434-1.058c-0.244-0.792,0.2-1.631,0.991-1.875    c20.566-6.346,42.313-6.345,62.885,0c0.791,0.244,1.235,1.084,0.991,1.875c-0.244,0.792-1.082,1.236-1.876,0.992    c-19.996-6.167-41.129-6.167-61.115,0C56.758,39.131,56.608,39.153,56.463,39.153z"/>
		<path class="st3" d="M137.462,39.013c-0.643,0-1.237-0.417-1.435-1.064c-0.24-0.792,0.207-1.63,0.999-1.871    c20.228-6.146,41.621-6.159,61.87-0.041c0.793,0.24,1.242,1.077,1.002,1.87c-0.239,0.793-1.081,1.24-1.869,1.002    c-19.681-5.946-40.475-5.934-60.13,0.039C137.754,38.992,137.606,39.013,137.462,39.013z"/>
		<circle class="st9" cx="183.75" cy="183.932" r="56"/>
		<path class="st3" d="M183.75,241.432c-31.706,0-57.5-25.794-57.5-57.5c0-31.706,25.794-57.5,57.5-57.5s57.5,25.794,57.5,57.5    C241.25,215.638,215.456,241.432,183.75,241.432z M183.75,129.432c-30.052,0-54.5,24.449-54.5,54.5    c0,30.051,24.448,54.5,54.5,54.5s54.5-24.449,54.5-54.5C238.25,153.881,213.802,129.432,183.75,129.432z"/>
		<path class="st3" d="M183.75,241.432c-21.474,0-38.943-25.794-38.943-57.5c0-31.706,17.47-57.5,38.943-57.5    s38.943,25.794,38.943,57.5C222.693,215.638,205.224,241.432,183.75,241.432z M183.75,129.432    c-19.819,0-35.943,24.449-35.943,54.5c0,30.051,16.124,54.5,35.943,54.5s35.943-24.449,35.943-54.5    C219.693,153.881,203.569,129.432,183.75,129.432z"/>
		<path class="st3" d="M183.75,241.432c-10.405,0-16.02-29.626-16.02-57.5s5.615-57.5,16.02-57.5s16.02,29.626,16.02,57.5    S194.155,241.432,183.75,241.432z M183.75,129.432c-6.158,0-13.02,22.382-13.02,54.5c0,32.118,6.862,54.5,13.02,54.5    s13.02-22.382,13.02-54.5C196.77,151.815,189.908,129.432,183.75,129.432z"/>
		<path class="st3" d="M183.75,222.876c-31.706,0-57.5-17.47-57.5-38.944c0-21.474,25.794-38.943,57.5-38.943    s57.5,17.47,57.5,38.943C241.25,205.406,215.456,222.876,183.75,222.876z M183.75,147.989c-30.052,0-54.5,16.124-54.5,35.943    c0,19.819,24.448,35.944,54.5,35.944s54.5-16.124,54.5-35.944C238.25,164.113,213.802,147.989,183.75,147.989z"/>
		<path class="st3" d="M183.75,199.953c-27.875,0-57.5-5.615-57.5-16.02c0-10.405,29.625-16.02,57.5-16.02s57.5,5.615,57.5,16.02    C241.25,194.338,211.625,199.953,183.75,199.953z M183.75,170.912c-32.117,0-54.5,6.862-54.5,13.02    c0,6.159,22.383,13.02,54.5,13.02s54.5-6.862,54.5-13.02C238.25,177.774,215.867,170.912,183.75,170.912z"/>
		<path class="st17" d="M214.719,30.068h-4.896V132.71c5.725,2.926,10.896,6.78,15.316,11.369V40.488    C225.139,34.742,220.464,30.068,214.719,30.068z"/>
	</g>
</g>
</svg>