<svg xmlns="http://www.w3.org/2000/svg" xmlns:xlink="http://www.w3.org/1999/xlink" width="1080" zoomAndPan="magnify" viewBox="0 0 810 809.999993" height="1080" preserveAspectRatio="xMidYMid meet" version="1.0"><defs><g/></defs><path fill="#415eb3" d="M 567 405 C 567 407.652344 566.933594 410.300781 566.804688 412.949219 C 566.675781 415.597656 566.480469 418.242188 566.21875 420.878906 C 565.960938 423.515625 565.636719 426.148438 565.246094 428.769531 C 564.859375 431.394531 564.40625 434.003906 563.886719 436.605469 C 563.371094 439.203125 562.789062 441.789062 562.144531 444.363281 C 561.5 446.933594 560.792969 449.488281 560.023438 452.027344 C 559.253906 454.5625 558.421875 457.078125 557.53125 459.574219 C 556.636719 462.074219 555.683594 464.546875 554.667969 466.996094 C 553.652344 469.445312 552.578125 471.867188 551.445312 474.265625 C 550.3125 476.660156 549.121094 479.027344 547.871094 481.367188 C 546.621094 483.703125 545.316406 486.011719 543.953125 488.285156 C 542.589844 490.558594 541.171875 492.796875 539.699219 495.003906 C 538.226562 497.207031 536.699219 499.375 535.121094 501.503906 C 533.539062 503.632812 531.910156 505.722656 530.226562 507.773438 C 528.546875 509.820312 526.816406 511.828125 525.035156 513.792969 C 523.253906 515.757812 521.425781 517.675781 519.550781 519.550781 C 517.675781 521.425781 515.757812 523.253906 513.792969 525.035156 C 511.828125 526.816406 509.820312 528.546875 507.773438 530.226562 C 505.722656 531.910156 503.632812 533.539062 501.503906 535.121094 C 499.375 536.699219 497.207031 538.226562 495.003906 539.699219 C 492.796875 541.171875 490.558594 542.589844 488.285156 543.953125 C 486.011719 545.316406 483.703125 546.621094 481.367188 547.871094 C 479.027344 549.121094 476.660156 550.3125 474.265625 551.445312 C 471.867188 552.578125 469.445312 553.652344 466.996094 554.667969 C 464.546875 555.683594 462.074219 556.636719 459.574219 557.53125 C 457.078125 558.421875 454.5625 559.253906 452.027344 560.023438 C 449.488281 560.792969 446.933594 561.5 444.363281 562.144531 C 441.789062 562.789062 439.203125 563.371094 436.605469 563.886719 C 434.003906 564.40625 431.394531 564.859375 428.769531 565.246094 C 426.148438 565.636719 423.515625 565.960938 420.878906 566.21875 C 418.242188 566.480469 415.597656 566.675781 412.949219 566.804688 C 410.300781 566.933594 407.652344 567 405 567 C 402.347656 567 399.699219 566.933594 397.050781 566.804688 C 394.402344 566.675781 391.757812 566.480469 389.121094 566.21875 C 386.484375 565.960938 383.851562 565.636719 381.230469 565.246094 C 378.605469 564.859375 375.996094 564.40625 373.394531 563.886719 C 370.796875 563.371094 368.207031 562.789062 365.636719 562.144531 C 363.066406 561.5 360.511719 560.792969 357.972656 560.023438 C 355.4375 559.253906 352.921875 558.421875 350.421875 557.53125 C 347.925781 556.636719 345.453125 555.683594 343.003906 554.667969 C 340.554688 553.652344 338.132812 552.578125 335.734375 551.445312 C 333.339844 550.3125 330.972656 549.121094 328.632812 547.871094 C 326.296875 546.621094 323.988281 545.316406 321.714844 543.953125 C 319.441406 542.589844 317.203125 541.171875 314.996094 539.699219 C 312.792969 538.226562 310.625 536.699219 308.496094 535.121094 C 306.367188 533.539062 304.277344 531.910156 302.226562 530.226562 C 300.179688 528.546875 298.171875 526.816406 296.207031 525.035156 C 294.242188 523.253906 292.324219 521.425781 290.449219 519.550781 C 288.574219 517.675781 286.746094 515.757812 284.964844 513.792969 C 283.183594 511.828125 281.453125 509.820312 279.773438 507.773438 C 278.089844 505.722656 276.460938 503.632812 274.878906 501.503906 C 273.300781 499.375 271.773438 497.207031 270.300781 495.003906 C 268.828125 492.796875 267.410156 490.558594 266.046875 488.285156 C 264.683594 486.011719 263.378906 483.703125 262.128906 481.367188 C 260.878906 479.027344 259.6875 476.660156 258.554688 474.265625 C 257.421875 471.867188 256.347656 469.445312 255.332031 466.996094 C 254.316406 464.546875 253.363281 462.074219 252.46875 459.574219 C 251.578125 457.078125 250.746094 454.5625 249.976562 452.027344 C 249.207031 449.488281 248.5 446.933594 247.855469 444.363281 C 247.210938 441.789062 246.628906 439.203125 246.113281 436.605469 C 245.59375 434.003906 245.140625 431.394531 244.753906 428.769531 C 244.363281 426.148438 244.039062 423.515625 243.78125 420.878906 C 243.519531 418.242188 243.324219 415.597656 243.195312 412.949219 C 243.066406 410.300781 243 407.652344 243 405 C 243 402.347656 243.066406 399.699219 243.195312 397.050781 C 243.324219 394.402344 243.519531 391.757812 243.78125 389.121094 C 244.039062 386.484375 244.363281 383.851562 244.753906 381.230469 C 245.140625 378.605469 245.59375 375.996094 246.113281 373.394531 C 246.628906 370.796875 247.210938 368.210938 247.855469 365.636719 C 248.5 363.066406 249.207031 360.511719 249.976562 357.972656 C 250.746094 355.4375 251.578125 352.921875 252.46875 350.425781 C 253.363281 347.925781 254.316406 345.453125 255.332031 343.003906 C 256.347656 340.554688 257.421875 338.132812 258.554688 335.734375 C 259.6875 333.339844 260.878906 330.972656 262.128906 328.632812 C 263.378906 326.296875 264.683594 323.988281 266.046875 321.714844 C 267.410156 319.441406 268.828125 317.203125 270.300781 314.996094 C 271.773438 312.792969 273.300781 310.625 274.878906 308.496094 C 276.460938 306.367188 278.089844 304.277344 279.773438 302.226562 C 281.453125 300.179688 283.183594 298.171875 284.964844 296.207031 C 286.746094 294.242188 288.574219 292.324219 290.449219 290.449219 C 292.324219 288.574219 294.242188 286.746094 296.207031 284.964844 C 298.171875 283.183594 300.179688 281.453125 302.226562 279.773438 C 304.277344 278.089844 306.367188 276.460938 308.496094 274.878906 C 310.625 273.300781 312.792969 271.773438 314.996094 270.300781 C 317.203125 268.828125 319.441406 267.410156 321.714844 266.046875 C 323.988281 264.683594 326.296875 263.378906 328.632812 262.128906 C 330.972656 260.878906 333.339844 259.6875 335.734375 258.554688 C 338.132812 257.421875 340.554688 256.347656 343.003906 255.332031 C 345.453125 254.316406 347.925781 253.363281 350.421875 252.46875 C 352.921875 251.578125 355.4375 250.746094 357.972656 249.976562 C 360.511719 249.207031 363.066406 248.5 365.636719 247.855469 C 368.210938 247.210938 370.796875 246.628906 373.394531 246.113281 C 375.996094 245.59375 378.605469 245.140625 381.230469 244.753906 C 383.851562 244.363281 386.484375 244.039062 389.121094 243.78125 C 391.757812 243.519531 394.402344 243.324219 397.050781 243.195312 C 399.699219 243.066406 402.347656 243 405 243 C 407.652344 243 410.300781 243.066406 412.949219 243.195312 C 415.597656 243.324219 418.242188 243.519531 420.878906 243.78125 C 423.515625 244.039062 426.148438 244.363281 428.769531 244.753906 C 431.394531 245.140625 434.003906 245.59375 436.605469 246.113281 C 439.203125 246.628906 441.789062 247.210938 444.363281 247.855469 C 446.933594 248.5 449.488281 249.207031 452.027344 249.976562 C 454.5625 250.746094 457.078125 251.578125 459.574219 252.46875 C 462.074219 253.363281 464.546875 254.316406 466.996094 255.332031 C 469.445312 256.347656 471.867188 257.421875 474.265625 258.554688 C 476.660156 259.6875 479.027344 260.878906 481.367188 262.128906 C 483.703125 263.378906 486.011719 264.683594 488.285156 266.046875 C 490.558594 267.410156 492.796875 268.828125 495.003906 270.300781 C 497.207031 271.773438 499.375 273.300781 501.503906 274.878906 C 503.632812 276.460938 505.722656 278.089844 507.773438 279.773438 C 509.820312 281.453125 511.828125 283.183594 513.792969 284.964844 C 515.757812 286.746094 517.675781 288.574219 519.550781 290.449219 C 521.425781 292.324219 523.253906 294.242188 525.035156 296.207031 C 526.816406 298.171875 528.546875 300.179688 530.226562 302.226562 C 531.910156 304.277344 533.539062 306.367188 535.121094 308.496094 C 536.699219 310.625 538.226562 312.792969 539.699219 314.996094 C 541.171875 317.203125 542.589844 319.441406 543.953125 321.714844 C 545.316406 323.988281 546.621094 326.296875 547.871094 328.632812 C 549.121094 330.972656 550.3125 333.339844 551.445312 335.734375 C 552.578125 338.132812 553.652344 340.554688 554.667969 343.003906 C 555.683594 345.453125 556.636719 347.925781 557.53125 350.425781 C 558.421875 352.921875 559.253906 355.4375 560.023438 357.972656 C 560.792969 360.511719 561.5 363.066406 562.144531 365.636719 C 562.789062 368.210938 563.371094 370.796875 563.886719 373.394531 C 564.40625 375.996094 564.859375 378.605469 565.246094 381.230469 C 565.636719 383.851562 565.960938 386.484375 566.21875 389.121094 C 566.480469 391.757812 566.675781 394.402344 566.804688 397.050781 C 566.933594 399.699219 567 402.347656 567 405 Z M 567 405 " fill-opacity="1" fill-rule="nonzero"/><path fill="#fffffe" d="M 416.960938 343.363281 C 416.960938 343.679688 416.898438 343.992188 416.78125 344.300781 C 416.660156 344.613281 416.484375 344.914062 416.246094 345.203125 C 416.011719 345.496094 415.722656 345.773438 415.382812 346.035156 C 415.039062 346.296875 414.652344 346.542969 414.21875 346.765625 C 413.78125 346.988281 413.308594 347.1875 412.796875 347.363281 C 412.285156 347.539062 411.746094 347.6875 411.179688 347.808594 C 410.609375 347.929688 410.023438 348.019531 409.421875 348.082031 C 408.820312 348.144531 408.210938 348.171875 407.59375 348.171875 C 406.980469 348.171875 406.371094 348.144531 405.765625 348.082031 C 405.164062 348.019531 404.578125 347.929688 404.011719 347.808594 C 403.441406 347.6875 402.902344 347.539062 402.390625 347.363281 C 401.878906 347.1875 401.40625 346.988281 400.972656 346.765625 C 400.539062 346.542969 400.148438 346.296875 399.808594 346.035156 C 399.464844 345.773438 399.175781 345.496094 398.941406 345.203125 C 398.707031 344.914062 398.527344 344.613281 398.410156 344.300781 C 398.289062 343.992188 398.230469 343.679688 398.230469 343.363281 C 398.230469 343.046875 398.289062 342.734375 398.410156 342.425781 C 398.527344 342.117188 398.707031 341.816406 398.941406 341.523438 C 399.175781 341.230469 399.464844 340.953125 399.808594 340.691406 C 400.148438 340.429688 400.539062 340.1875 400.972656 339.964844 C 401.40625 339.738281 401.878906 339.539062 402.390625 339.363281 C 402.902344 339.191406 403.441406 339.042969 404.011719 338.921875 C 404.578125 338.800781 405.164062 338.707031 405.765625 338.648438 C 406.371094 338.585938 406.980469 338.554688 407.59375 338.554688 C 408.210938 338.554688 408.820312 338.585938 409.421875 338.648438 C 410.023438 338.707031 410.609375 338.800781 411.179688 338.921875 C 411.746094 339.042969 412.285156 339.191406 412.796875 339.363281 C 413.308594 339.539062 413.78125 339.738281 414.21875 339.964844 C 414.652344 340.1875 415.039062 340.429688 415.382812 340.691406 C 415.722656 340.953125 416.011719 341.230469 416.246094 341.523438 C 416.484375 341.816406 416.660156 342.117188 416.78125 342.425781 C 416.898438 342.734375 416.960938 343.046875 416.960938 343.363281 Z M 416.960938 343.363281 " fill-opacity="1" fill-rule="nonzero"/><path fill="#fffffe" d="M 407.59375 311.976562 L 337.164062 343.363281 L 407.59375 374.75 L 457.460938 352.539062 C 457.523438 352.539062 457.585938 352.476562 457.648438 352.476562 L 478.089844 343.363281 Z M 407.59375 352.476562 C 399.9375 352.476562 393.988281 348.488281 393.988281 343.363281 C 393.988281 338.238281 400 334.25 407.59375 334.25 C 415.25 334.25 421.199219 338.238281 421.199219 343.363281 C 421.261719 348.488281 415.25 352.476562 407.59375 352.476562 Z M 407.59375 352.476562 " fill-opacity="1" fill-rule="evenodd"/><path fill="#fffffe" d="M 334.0625 346.65625 L 334.0625 367.285156 L 338.746094 367.285156 L 338.746094 348.742188 Z M 334.0625 346.65625 " fill-opacity="1" fill-rule="evenodd"/><path fill="#fffffe" d="M 332.734375 372.15625 C 331.214844 375.574219 327.859375 384.8125 329.570312 396.898438 C 329.632812 397.40625 330.074219 397.785156 330.582031 397.785156 L 342.289062 397.785156 C 342.792969 397.785156 343.238281 397.40625 343.300781 396.898438 C 345.007812 384.75 341.65625 375.574219 340.136719 372.15625 C 340.074219 371.96875 339.945312 371.839844 339.820312 371.777344 C 339.757812 371.777344 339.757812 371.714844 339.695312 371.714844 C 339.566406 371.652344 339.378906 371.585938 339.1875 371.585938 L 333.683594 371.585938 C 333.492188 371.585938 333.300781 371.652344 333.175781 371.714844 L 333.113281 371.777344 C 332.921875 371.839844 332.796875 371.96875 332.734375 372.15625 Z M 332.734375 372.15625 " fill-opacity="1" fill-rule="evenodd"/><path fill="#fffffe" d="M 336.402344 402.089844 C 333.492188 402.089844 331.085938 404.492188 331.085938 407.40625 C 331.085938 410.316406 333.492188 412.71875 336.402344 412.71875 C 339.3125 412.71875 341.71875 410.316406 341.71875 407.40625 C 341.71875 404.429688 339.3125 402.089844 336.402344 402.089844 Z M 336.402344 402.089844 " fill-opacity="1" fill-rule="evenodd"/><path fill="#fffffe" d="M 358.929688 357.730469 L 358.929688 387.914062 C 361.90625 387.914062 367.601562 388.292969 374.625 390.253906 C 383.609375 392.785156 396.394531 398.480469 407.59375 411.453125 C 418.796875 398.480469 431.640625 392.785156 440.5625 390.253906 C 447.589844 388.292969 453.21875 387.914062 456.257812 387.914062 L 456.257812 357.730469 L 408.480469 379.054688 C 408.226562 379.179688 407.910156 379.246094 407.59375 379.246094 C 407.277344 379.246094 407.023438 379.179688 406.707031 379.054688 Z M 358.929688 357.730469 " fill-opacity="1" fill-rule="evenodd"/><path fill="#fffffe" d="M 440.058594 430.25 L 353.171875 430.25 L 353.171875 462.332031 L 439.996094 462.332031 Z M 405.191406 441.765625 C 405.191406 440.5625 406.140625 439.613281 407.339844 439.613281 L 426.640625 439.613281 C 427.84375 439.613281 428.792969 440.5625 428.792969 441.765625 C 428.792969 442.96875 427.84375 443.917969 426.640625 443.917969 L 407.339844 443.917969 C 406.140625 443.855469 405.191406 442.90625 405.191406 441.765625 Z M 366.589844 439.613281 L 385.890625 439.613281 C 387.089844 439.613281 388.039062 440.5625 388.039062 441.765625 C 388.039062 442.96875 387.089844 443.917969 385.890625 443.917969 L 366.589844 443.917969 C 365.386719 443.917969 364.4375 442.96875 364.4375 441.765625 C 364.4375 440.5625 365.449219 439.613281 366.589844 439.613281 Z M 405.191406 450.816406 C 405.191406 449.613281 406.140625 448.664062 407.339844 448.664062 L 426.640625 448.664062 C 427.84375 448.664062 428.792969 449.613281 428.792969 450.816406 C 428.792969 452.019531 427.84375 452.96875 426.640625 452.96875 L 407.339844 452.96875 C 406.140625 452.902344 405.191406 451.953125 405.191406 450.816406 Z M 366.589844 448.664062 L 385.890625 448.664062 C 387.089844 448.664062 388.039062 449.613281 388.039062 450.816406 C 388.039062 452.019531 387.089844 452.96875 385.890625 452.96875 L 366.589844 452.96875 C 365.386719 452.96875 364.4375 452.019531 364.4375 450.816406 C 364.4375 449.613281 365.449219 448.664062 366.589844 448.664062 Z M 366.589844 448.664062 " fill-opacity="1" fill-rule="evenodd"/><path fill="#fffffe" d="M 348.871094 430.25 L 329.503906 430.25 C 327.289062 430.25 325.457031 432.085938 325.457031 434.300781 L 325.457031 458.21875 C 325.457031 460.433594 327.289062 462.269531 329.503906 462.269531 L 348.871094 462.269531 C 348.871094 462.269531 348.871094 430.25 348.871094 430.25 Z M 348.871094 430.25 " fill-opacity="1" fill-rule="evenodd"/><path fill="#fffffe" d="M 351.019531 466.574219 L 346.589844 466.574219 C 344.375 466.574219 342.542969 468.40625 342.542969 470.621094 L 342.542969 494.542969 C 342.542969 496.757812 344.375 498.59375 346.589844 498.59375 L 365.957031 498.59375 L 365.957031 466.507812 Z M 351.019531 466.574219 " fill-opacity="1" fill-rule="evenodd"/><path fill="#fffffe" d="M 457.082031 466.574219 L 370.195312 466.574219 L 370.195312 498.65625 L 457.082031 498.65625 Z M 383.609375 475.9375 L 402.910156 475.9375 C 404.113281 475.9375 405.0625 476.886719 405.0625 478.089844 C 405.0625 479.292969 404.113281 480.242188 402.910156 480.242188 L 383.609375 480.242188 C 382.410156 480.242188 381.460938 479.292969 381.460938 478.089844 C 381.523438 476.886719 382.472656 475.9375 383.609375 475.9375 Z M 424.300781 484.988281 L 443.601562 484.988281 C 444.804688 484.988281 445.753906 485.9375 445.753906 487.140625 C 445.753906 488.339844 444.804688 489.289062 443.601562 489.289062 L 424.300781 489.289062 C 423.097656 489.289062 422.148438 488.339844 422.148438 487.140625 C 422.210938 485.9375 423.160156 484.988281 424.300781 484.988281 Z M 383.609375 484.988281 L 402.910156 484.988281 C 404.113281 484.988281 405.0625 485.9375 405.0625 487.140625 C 405.0625 488.339844 404.113281 489.289062 402.910156 489.289062 L 383.609375 489.289062 C 382.410156 489.289062 381.460938 488.339844 381.460938 487.140625 C 381.523438 485.9375 382.472656 484.988281 383.609375 484.988281 Z M 422.210938 478.089844 C 422.210938 476.886719 423.160156 475.9375 424.363281 475.9375 L 443.601562 475.9375 C 444.804688 475.9375 445.753906 476.886719 445.753906 478.089844 C 445.753906 479.292969 444.804688 480.242188 443.601562 480.242188 L 424.300781 480.242188 C 423.160156 480.242188 422.210938 479.230469 422.210938 478.089844 Z M 422.210938 478.089844 " fill-opacity="1" fill-rule="evenodd"/><path fill="#fffffe" d="M 444.296875 430.25 L 444.296875 462.332031 L 463.597656 462.332031 C 465.8125 462.332031 467.648438 460.496094 467.648438 458.28125 L 467.648438 434.363281 C 467.648438 432.148438 465.8125 430.3125 463.597656 430.3125 L 444.296875 430.3125 Z M 444.296875 430.25 " fill-opacity="1" fill-rule="evenodd"/><path fill="#fffffe" d="M 461.320312 466.574219 L 461.320312 498.65625 L 480.683594 498.65625 C 482.898438 498.65625 484.734375 496.820312 484.734375 494.605469 L 484.734375 470.6875 C 484.734375 468.472656 482.898438 466.636719 480.683594 466.636719 Z M 461.320312 466.574219 " fill-opacity="1" fill-rule="evenodd"/><g fill="#004aad" fill-opacity="1"><g transform="translate(186.206538, 198.92046)"><g><path d="M 33.382812 1.246094 C 15.601562 1.246094 4.289062 -6.707031 4.289062 -27.066406 C 4.289062 -46.175781 17.316406 -54.910156 33.617188 -54.910156 C 41.105469 -54.910156 47.65625 -52.105469 51.167969 -52.105469 C 52.414062 -52.105469 53.976562 -52.339844 54.445312 -54.054688 L 54.910156 -54.054688 L 53.351562 -30.652344 L 52.882812 -30.652344 C 48.046875 -44.382812 41.261719 -54.210938 33.695312 -54.210938 C 24.335938 -54.210938 22.074219 -45.863281 22.074219 -26.832031 C 22.074219 -6.550781 23.867188 0.546875 33.382812 0.546875 C 41.261719 0.546875 47.035156 -9.28125 52.882812 -23.011719 L 53.351562 -23.011719 L 54.835938 0.390625 L 54.367188 0.390625 C 53.898438 -1.246094 52.648438 -1.480469 51.089844 -1.480469 C 47.8125 -1.480469 40.714844 1.246094 33.382812 1.246094 Z M 33.382812 1.246094 "/></g></g></g><g fill="#004aad" fill-opacity="1"><g transform="translate(245.798588, 198.92046)"><g><path d="M 34.476562 1.246094 C 16.066406 1.246094 4.289062 -6.707031 4.289062 -27.066406 C 4.289062 -46.175781 16.066406 -54.910156 34.476562 -54.910156 C 52.882812 -54.910156 64.660156 -46.175781 64.660156 -27.066406 C 64.660156 -6.707031 52.882812 1.246094 34.476562 1.246094 Z M 34.476562 -54.210938 C 24.023438 -54.210938 22.074219 -45.863281 22.074219 -26.832031 C 22.074219 -6.550781 24.023438 0.546875 34.476562 0.546875 C 44.929688 0.546875 46.878906 -6.550781 46.878906 -26.832031 C 46.878906 -45.863281 44.929688 -54.210938 34.476562 -54.210938 Z M 34.476562 -54.210938 "/></g></g></g><g fill="#004aad" fill-opacity="1"><g transform="translate(314.750645, 198.92046)"><g><path d="M 71.605469 -53.664062 L 39.234375 -53.664062 L 39.234375 -53.117188 L 40.480469 -53.117188 C 44.695312 -53.117188 46.097656 -51.558594 46.097656 -44.226562 L 46.097656 -17.472656 C 46.097656 -5.773438 44.617188 0.546875 36.503906 0.546875 C 28.390625 0.546875 26.910156 -5.773438 26.910156 -17.472656 L 26.910156 -44.226562 C 26.910156 -51.558594 28.3125 -53.117188 32.527344 -53.117188 L 33.773438 -53.117188 L 33.773438 -53.664062 L 1.402344 -53.664062 L 1.402344 -53.117188 L 2.652344 -53.117188 C 8.035156 -53.117188 9.828125 -51.558594 9.828125 -44.226562 L 9.828125 -23.945312 C 9.828125 -5.929688 18.640625 1.246094 36.503906 1.246094 C 54.367188 1.246094 63.179688 -5.929688 63.179688 -23.945312 L 63.179688 -44.226562 C 63.179688 -51.558594 64.972656 -53.117188 70.355469 -53.117188 L 71.605469 -53.117188 Z M 71.605469 -53.664062 "/></g></g></g><g fill="#004aad" fill-opacity="1"><g transform="translate(387.758706, 198.92046)"><g><path d="M 65.753906 -9.90625 C 64.972656 -5.617188 63.257812 -3.121094 60.214844 -3.121094 C 57.253906 -3.121094 55.691406 -5.539062 55.300781 -12.636719 C 54.601562 -25.351562 44.773438 -27.925781 37.050781 -28.390625 C 54.445312 -28.859375 58.8125 -33.773438 58.8125 -41.339844 C 58.8125 -48.984375 53.976562 -53.664062 34.164062 -53.664062 L 2.496094 -53.664062 L 2.496094 -53.117188 L 3.742188 -53.117188 C 9.125 -53.117188 10.921875 -51.558594 10.921875 -44.226562 L 10.921875 -9.4375 C 10.921875 -2.105469 9.125 -0.546875 3.742188 -0.546875 L 2.496094 -0.546875 L 2.496094 0 L 36.425781 0 L 36.425781 -0.546875 L 35.179688 -0.546875 C 29.796875 -0.546875 28.003906 -2.105469 28.003906 -9.4375 L 28.003906 -28.390625 L 30.808594 -28.390625 C 34.789062 -28.390625 37.441406 -26.753906 37.675781 -15.835938 C 38.140625 -1.324219 44.304688 1.246094 52.027344 1.246094 C 60.136719 1.246094 64.660156 -1.558594 66.300781 -9.671875 Z M 41.339844 -41.339844 C 41.339844 -32.761719 38.375 -28.9375 29.484375 -28.9375 L 28.003906 -28.9375 L 28.003906 -53.117188 L 28.78125 -53.117188 C 37.441406 -53.117188 41.339844 -49.53125 41.339844 -41.339844 Z M 41.339844 -41.339844 "/></g></g></g><g fill="#004aad" fill-opacity="1"><g transform="translate(453.746777, 198.92046)"><g><path d="M 38.84375 -7.878906 C 38.84375 -2.730469 34.710938 0.546875 26.988281 0.546875 C 18.71875 0.546875 12.558594 -5.304688 6.863281 -22.230469 L 6.394531 -22.230469 L 4.992188 0.390625 L 5.460938 0.390625 C 5.929688 -1.246094 7.175781 -1.480469 8.425781 -1.480469 C 11.933594 -1.480469 18.253906 1.246094 26.910156 1.246094 C 41.183594 1.246094 49.375 -5.382812 49.375 -15.445312 C 49.375 -26.285156 42.433594 -30.496094 32.683594 -33.773438 C 20.28125 -37.050781 15.679688 -40.324219 15.679688 -46.722656 C 15.679688 -51.480469 18.71875 -54.210938 25.738281 -54.210938 C 34.398438 -54.210938 39.3125 -48.828125 44.695312 -33.226562 L 45.160156 -33.226562 L 46.644531 -54.054688 L 46.175781 -54.054688 C 45.707031 -52.339844 44.148438 -52.105469 42.898438 -52.105469 C 39.234375 -52.105469 33.460938 -54.910156 25.738281 -54.910156 C 14.742188 -54.910156 4.992188 -49.84375 4.992188 -39.3125 C 4.992188 -30.34375 8.8125 -25.117188 21.527344 -20.59375 C 31.121094 -17.472656 38.84375 -15.445312 38.84375 -7.878906 Z M 38.84375 -7.878906 "/></g></g></g><g fill="#004aad" fill-opacity="1"><g transform="translate(506.708818, 198.92046)"><g><path d="M 58.8125 -22.777344 C 54.988281 -11.855469 44.773438 -0.625 28.15625 -0.625 L 28.003906 -0.625 L 28.003906 -26.441406 C 36.191406 -26.207031 40.949219 -20.59375 42.199219 -12.167969 L 42.664062 -12.167969 L 42.664062 -42.042969 L 42.199219 -42.042969 C 40.949219 -33.226562 36.191406 -27.222656 28.003906 -26.988281 L 28.003906 -53.039062 L 29.5625 -53.039062 C 42.511719 -53.039062 55.847656 -43.289062 58.109375 -30.652344 L 58.578125 -30.652344 L 57.796875 -53.664062 L 2.496094 -53.664062 L 2.496094 -53.117188 L 3.742188 -53.117188 C 9.125 -53.117188 10.921875 -51.558594 10.921875 -44.226562 L 10.921875 -9.4375 C 10.921875 -2.105469 9.125 -0.546875 3.742188 -0.546875 L 2.496094 -0.546875 L 2.496094 0 L 57.953125 0 L 59.28125 -22.777344 Z M 58.8125 -22.777344 "/></g></g></g><g fill="#004aad" fill-opacity="1"><g transform="translate(570.824866, 198.92046)"><g><path d="M 38.84375 -7.878906 C 38.84375 -2.730469 34.710938 0.546875 26.988281 0.546875 C 18.71875 0.546875 12.558594 -5.304688 6.863281 -22.230469 L 6.394531 -22.230469 L 4.992188 0.390625 L 5.460938 0.390625 C 5.929688 -1.246094 7.175781 -1.480469 8.425781 -1.480469 C 11.933594 -1.480469 18.253906 1.246094 26.910156 1.246094 C 41.183594 1.246094 49.375 -5.382812 49.375 -15.445312 C 49.375 -26.285156 42.433594 -30.496094 32.683594 -33.773438 C 20.28125 -37.050781 15.679688 -40.324219 15.679688 -46.722656 C 15.679688 -51.480469 18.71875 -54.210938 25.738281 -54.210938 C 34.398438 -54.210938 39.3125 -48.828125 44.695312 -33.226562 L 45.160156 -33.226562 L 46.644531 -54.054688 L 46.175781 -54.054688 C 45.707031 -52.339844 44.148438 -52.105469 42.898438 -52.105469 C 39.234375 -52.105469 33.460938 -54.910156 25.738281 -54.910156 C 14.742188 -54.910156 4.992188 -49.84375 4.992188 -39.3125 C 4.992188 -30.34375 8.8125 -25.117188 21.527344 -20.59375 C 31.121094 -17.472656 38.84375 -15.445312 38.84375 -7.878906 Z M 38.84375 -7.878906 "/></g></g></g></svg>