<svg xmlns="http://www.w3.org/2000/svg" xmlns:xlink="http://www.w3.org/1999/xlink" width="1080" zoomAndPan="magnify" viewBox="0 0 810 809.999993" height="1080" preserveAspectRatio="xMidYMid meet" version="1.0"><defs><clipPath id="8dda7db044"><path d="M 243 243 L 567 243 L 567 567 L 243 567 Z M 243 243 " clip-rule="nonzero"/></clipPath></defs><g clip-path="url(#8dda7db044)"><path fill="#1a4789" d="M 567.015625 405.003906 C 567.015625 407.65625 566.949219 410.304688 566.820312 412.953125 C 566.691406 415.601562 566.496094 418.246094 566.234375 420.882812 C 565.976562 423.519531 565.652344 426.152344 565.261719 428.773438 C 564.871094 431.398438 564.417969 434.007812 563.902344 436.609375 C 563.386719 439.210938 562.804688 441.796875 562.160156 444.367188 C 561.515625 446.9375 560.808594 449.492188 560.039062 452.03125 C 559.269531 454.566406 558.4375 457.085938 557.546875 459.582031 C 556.652344 462.078125 555.699219 464.550781 554.683594 467 C 553.667969 469.449219 552.59375 471.871094 551.460938 474.269531 C 550.328125 476.664062 549.136719 479.03125 547.886719 481.371094 C 546.636719 483.710938 545.332031 486.015625 543.96875 488.289062 C 542.605469 490.5625 541.1875 492.800781 539.714844 495.007812 C 538.242188 497.210938 536.714844 499.378906 535.136719 501.507812 C 533.554688 503.636719 531.925781 505.726562 530.242188 507.777344 C 528.5625 509.824219 526.828125 511.832031 525.050781 513.796875 C 523.269531 515.761719 521.441406 517.679688 519.566406 519.554688 C 517.691406 521.429688 515.773438 523.257812 513.808594 525.039062 C 511.84375 526.820312 509.835938 528.550781 507.785156 530.234375 C 505.738281 531.914062 503.648438 533.546875 501.519531 535.125 C 499.386719 536.703125 497.222656 538.230469 495.015625 539.703125 C 492.8125 541.175781 490.574219 542.59375 488.300781 543.957031 C 486.023438 545.320312 483.71875 546.625 481.382812 547.875 C 479.042969 549.125 476.675781 550.316406 474.277344 551.453125 C 471.882812 552.585938 469.457031 553.660156 467.007812 554.671875 C 464.558594 555.6875 462.085938 556.640625 459.589844 557.535156 C 457.09375 558.429688 454.578125 559.261719 452.039062 560.03125 C 449.503906 560.800781 446.949219 561.507812 444.378906 562.148438 C 441.804688 562.792969 439.21875 563.375 436.617188 563.890625 C 434.019531 564.410156 431.40625 564.863281 428.785156 565.25 C 426.160156 565.640625 423.53125 565.964844 420.894531 566.226562 C 418.253906 566.484375 415.609375 566.679688 412.964844 566.808594 C 410.316406 566.941406 407.664062 567.003906 405.015625 567.003906 C 402.363281 567.003906 399.714844 566.941406 397.066406 566.808594 C 394.417969 566.679688 391.773438 566.484375 389.136719 566.226562 C 386.496094 565.964844 383.867188 565.640625 381.242188 565.25 C 378.621094 564.863281 376.007812 564.410156 373.410156 563.890625 C 370.808594 563.375 368.222656 562.792969 365.652344 562.148438 C 363.078125 561.507812 360.523438 560.800781 357.988281 560.03125 C 355.449219 559.261719 352.933594 558.429688 350.4375 557.535156 C 347.941406 556.640625 345.46875 555.6875 343.019531 554.671875 C 340.570312 553.660156 338.144531 552.585938 335.75 551.453125 C 333.351562 550.316406 330.984375 549.125 328.648438 547.875 C 326.308594 546.625 324.003906 545.320312 321.730469 543.957031 C 319.453125 542.59375 317.214844 541.175781 315.011719 539.703125 C 312.804688 538.230469 310.640625 536.703125 308.511719 535.125 C 306.378906 533.546875 304.289062 531.914062 302.242188 530.234375 C 300.191406 528.550781 298.183594 526.820312 296.21875 525.039062 C 294.257812 523.257812 292.335938 521.429688 290.460938 519.554688 C 288.585938 517.679688 286.757812 515.761719 284.980469 513.796875 C 283.199219 511.832031 281.46875 509.824219 279.785156 507.777344 C 278.101562 505.726562 276.472656 503.636719 274.894531 501.507812 C 273.3125 499.378906 271.789062 497.210938 270.316406 495.007812 C 268.84375 492.800781 267.425781 490.5625 266.0625 488.289062 C 264.699219 486.015625 263.390625 483.710938 262.140625 481.371094 C 260.890625 479.03125 259.699219 476.664062 258.566406 474.269531 C 257.433594 471.871094 256.359375 469.449219 255.34375 467 C 254.328125 464.550781 253.375 462.078125 252.484375 459.582031 C 251.589844 457.085938 250.757812 454.566406 249.988281 452.03125 C 249.21875 449.492188 248.511719 446.9375 247.867188 444.367188 C 247.222656 441.796875 246.644531 439.210938 246.125 436.609375 C 245.609375 434.007812 245.15625 431.398438 244.765625 428.773438 C 244.378906 426.152344 244.050781 423.519531 243.792969 420.882812 C 243.53125 418.246094 243.339844 415.601562 243.207031 412.953125 C 243.078125 410.304688 243.011719 407.65625 243.011719 405.003906 C 243.011719 402.351562 243.078125 399.703125 243.207031 397.054688 C 243.339844 394.40625 243.53125 391.761719 243.792969 389.125 C 244.050781 386.488281 244.378906 383.855469 244.765625 381.234375 C 245.15625 378.609375 245.609375 376 246.125 373.398438 C 246.644531 370.796875 247.222656 368.210938 247.867188 365.640625 C 248.511719 363.070312 249.21875 360.515625 249.988281 357.976562 C 250.757812 355.441406 251.589844 352.921875 252.484375 350.425781 C 253.375 347.929688 254.328125 345.457031 255.34375 343.007812 C 256.359375 340.558594 257.433594 338.136719 258.566406 335.738281 C 259.699219 333.34375 260.890625 330.976562 262.140625 328.636719 C 263.390625 326.300781 264.699219 323.992188 266.0625 321.71875 C 267.425781 319.445312 268.84375 317.207031 270.316406 315 C 271.789062 312.796875 273.3125 310.628906 274.894531 308.5 C 276.472656 306.371094 278.101562 304.28125 279.785156 302.230469 C 281.46875 300.183594 283.199219 298.175781 284.980469 296.210938 C 286.757812 294.246094 288.585938 292.328125 290.460938 290.453125 C 292.335938 288.578125 294.257812 286.75 296.21875 284.96875 C 298.183594 283.1875 300.191406 281.457031 302.242188 279.773438 C 304.289062 278.09375 306.378906 276.460938 308.511719 274.882812 C 310.640625 273.304688 312.804688 271.777344 315.011719 270.304688 C 317.214844 268.832031 319.453125 267.414062 321.730469 266.050781 C 324.003906 264.6875 326.308594 263.382812 328.648438 262.132812 C 330.984375 260.882812 333.351562 259.691406 335.75 258.554688 C 338.144531 257.421875 340.570312 256.347656 343.019531 255.335938 C 345.46875 254.320312 347.941406 253.367188 350.4375 252.472656 C 352.933594 251.578125 355.449219 250.746094 357.988281 249.976562 C 360.523438 249.207031 363.078125 248.5 365.652344 247.859375 C 368.222656 247.214844 370.808594 246.632812 373.410156 246.117188 C 376.007812 245.597656 378.621094 245.144531 381.242188 244.757812 C 383.867188 244.367188 386.496094 244.042969 389.136719 243.78125 C 391.773438 243.523438 394.417969 243.328125 397.066406 243.199219 C 399.714844 243.066406 402.363281 243.003906 405.015625 243.003906 C 407.664062 243.003906 410.316406 243.066406 412.964844 243.199219 C 415.609375 243.328125 418.253906 243.523438 420.894531 243.78125 C 423.53125 244.042969 426.160156 244.367188 428.785156 244.757812 C 431.40625 245.144531 434.019531 245.597656 436.617188 246.117188 C 439.21875 246.632812 441.804688 247.214844 444.378906 247.859375 C 446.949219 248.5 449.503906 249.207031 452.039062 249.976562 C 454.578125 250.746094 457.09375 251.578125 459.589844 252.472656 C 462.085938 253.367188 464.558594 254.320312 467.007812 255.335938 C 469.457031 256.347656 471.882812 257.421875 474.277344 258.554688 C 476.675781 259.691406 479.042969 260.882812 481.382812 262.132812 C 483.71875 263.382812 486.023438 264.6875 488.300781 266.050781 C 490.574219 267.414062 492.8125 268.832031 495.015625 270.304688 C 497.222656 271.777344 499.386719 273.304688 501.519531 274.882812 C 503.648438 276.460938 505.738281 278.09375 507.785156 279.773438 C 509.835938 281.457031 511.84375 283.1875 513.808594 284.96875 C 515.773438 286.75 517.691406 288.578125 519.566406 290.453125 C 521.441406 292.328125 523.269531 294.246094 525.050781 296.210938 C 526.828125 298.175781 528.5625 300.183594 530.242188 302.230469 C 531.925781 304.28125 533.554688 306.371094 535.136719 308.5 C 536.714844 310.628906 538.242188 312.796875 539.714844 315 C 541.1875 317.207031 542.605469 319.445312 543.96875 321.71875 C 545.332031 323.992188 546.636719 326.300781 547.886719 328.636719 C 549.136719 330.976562 550.328125 333.34375 551.460938 335.738281 C 552.59375 338.136719 553.667969 340.558594 554.683594 343.007812 C 555.699219 345.457031 556.652344 347.929688 557.546875 350.425781 C 558.4375 352.921875 559.269531 355.441406 560.039062 357.976562 C 560.808594 360.515625 561.515625 363.070312 562.160156 365.640625 C 562.804688 368.210938 563.386719 370.796875 563.902344 373.398438 C 564.417969 376 564.871094 378.609375 565.261719 381.234375 C 565.652344 383.855469 565.976562 386.488281 566.234375 389.125 C 566.496094 391.761719 566.691406 394.40625 566.820312 397.054688 C 566.949219 399.703125 567.015625 402.351562 567.015625 405.003906 Z M 567.015625 405.003906 " fill-opacity="1" fill-rule="nonzero"/></g><path fill="#ffffff" d="M 445.675781 413.339844 L 450.257812 377.824219 L 415.089844 377.824219 L 415.089844 355.144531 C 415.089844 344.863281 417.957031 337.855469 432.699219 337.855469 L 451.488281 337.847656 L 451.488281 306.082031 C 448.246094 305.648438 437.089844 304.683594 424.089844 304.683594 C 396.972656 304.683594 378.421875 321.238281 378.421875 351.632812 L 378.421875 377.824219 L 347.75 377.824219 L 347.75 413.339844 L 378.421875 413.339844 L 378.421875 504.460938 L 415.089844 504.460938 L 415.089844 413.339844 Z M 445.675781 413.339844 " fill-opacity="1" fill-rule="nonzero"/></svg>