<svg xmlns="http://www.w3.org/2000/svg" xmlns:xlink="http://www.w3.org/1999/xlink" width="1080" zoomAndPan="magnify" viewBox="0 0 810 809.999993" height="1080" preserveAspectRatio="xMidYMid meet" version="1.0"><defs><filter x="0%" y="0%" width="100%" height="100%" id="0d664e7a7b"><feColorMatrix values="0 0 0 0 1 0 0 0 0 1 0 0 0 0 1 0 0 0 1 0" color-interpolation-filters="sRGB"/></filter><g/><mask id="cdb1f729b0"><g filter="url(#0d664e7a7b)"><rect x="-81" width="972" fill="#000000" y="-80.999999" height="971.999992" fill-opacity="0.3"/></g></mask><clipPath id="bbe4f55a19"><path d="M 0.640625 1 L 181.601562 1 L 181.601562 176.800781 L 0.640625 176.800781 Z M 0.640625 1 " clip-rule="nonzero"/></clipPath><clipPath id="dd7b8a7163"><rect x="0" width="182" y="0" height="177"/></clipPath></defs><path fill="#004aad" d="M 405 243 C 407.652344 243 410.300781 243.066406 412.949219 243.195312 C 415.597656 243.324219 418.242188 243.519531 420.878906 243.78125 C 423.515625 244.039062 426.148438 244.363281 428.769531 244.753906 C 431.394531 245.140625 434.003906 245.59375 436.605469 246.113281 C 439.203125 246.628906 441.789062 247.210938 444.363281 247.855469 C 446.933594 248.5 449.488281 249.207031 452.027344 249.976562 C 454.5625 250.746094 457.078125 251.578125 459.574219 252.46875 C 462.074219 253.363281 464.546875 254.316406 466.996094 255.332031 C 469.445312 256.347656 471.867188 257.421875 474.265625 258.554688 C 476.660156 259.6875 479.027344 260.878906 481.367188 262.128906 C 483.703125 263.378906 486.011719 264.683594 488.285156 266.046875 C 490.558594 267.410156 492.796875 268.828125 495.003906 270.300781 C 497.207031 271.773438 499.375 273.300781 501.503906 274.878906 C 503.632812 276.460938 505.722656 278.089844 507.773438 279.773438 C 509.820312 281.453125 511.828125 283.183594 513.792969 284.964844 C 515.757812 286.746094 517.675781 288.574219 519.550781 290.449219 C 521.425781 292.324219 523.253906 294.242188 525.035156 296.207031 C 526.8125 298.171875 528.546875 300.179688 530.226562 302.226562 C 531.910156 304.277344 533.539062 306.367188 535.121094 308.496094 C 536.699219 310.625 538.226562 312.792969 539.699219 314.996094 C 541.171875 317.203125 542.589844 319.441406 543.953125 321.714844 C 545.316406 323.988281 546.621094 326.296875 547.871094 328.632812 C 549.121094 330.972656 550.3125 333.339844 551.445312 335.734375 C 552.578125 338.132812 553.652344 340.554688 554.667969 343.003906 C 555.683594 345.453125 556.636719 347.925781 557.53125 350.421875 C 558.421875 352.921875 559.253906 355.4375 560.023438 357.972656 C 560.792969 360.511719 561.5 363.066406 562.144531 365.636719 C 562.789062 368.207031 563.371094 370.796875 563.886719 373.394531 C 564.40625 375.996094 564.859375 378.605469 565.246094 381.230469 C 565.636719 383.851562 565.960938 386.484375 566.21875 389.121094 C 566.480469 391.757812 566.675781 394.402344 566.804688 397.050781 C 566.933594 399.699219 567 402.347656 567 405 C 567 407.652344 566.933594 410.300781 566.804688 412.949219 C 566.675781 415.597656 566.480469 418.242188 566.21875 420.878906 C 565.960938 423.515625 565.636719 426.148438 565.246094 428.769531 C 564.859375 431.394531 564.40625 434.003906 563.886719 436.605469 C 563.371094 439.203125 562.789062 441.789062 562.144531 444.363281 C 561.5 446.933594 560.792969 449.488281 560.023438 452.027344 C 559.253906 454.5625 558.421875 457.078125 557.53125 459.574219 C 556.636719 462.074219 555.683594 464.546875 554.667969 466.996094 C 553.652344 469.445312 552.578125 471.867188 551.445312 474.265625 C 550.3125 476.660156 549.121094 479.027344 547.871094 481.367188 C 546.621094 483.703125 545.316406 486.011719 543.953125 488.285156 C 542.589844 490.558594 541.171875 492.796875 539.699219 495.003906 C 538.226562 497.207031 536.699219 499.375 535.121094 501.503906 C 533.539062 503.632812 531.910156 505.722656 530.226562 507.773438 C 528.546875 509.820312 526.8125 511.828125 525.035156 513.792969 C 523.253906 515.757812 521.425781 517.675781 519.550781 519.550781 C 517.675781 521.425781 515.757812 523.253906 513.792969 525.035156 C 511.828125 526.816406 509.820312 528.546875 507.773438 530.226562 C 505.722656 531.910156 503.632812 533.539062 501.503906 535.121094 C 499.375 536.699219 497.207031 538.226562 495.003906 539.699219 C 492.796875 541.171875 490.558594 542.589844 488.285156 543.953125 C 486.011719 545.316406 483.703125 546.621094 481.367188 547.871094 C 479.027344 549.121094 476.660156 550.3125 474.265625 551.445312 C 471.867188 552.578125 469.445312 553.652344 466.996094 554.667969 C 464.546875 555.683594 462.074219 556.636719 459.574219 557.53125 C 457.078125 558.421875 454.5625 559.253906 452.027344 560.023438 C 449.488281 560.792969 446.933594 561.5 444.363281 562.144531 C 441.789062 562.789062 439.203125 563.371094 436.605469 563.886719 C 434.003906 564.40625 431.394531 564.859375 428.769531 565.246094 C 426.148438 565.636719 423.515625 565.960938 420.878906 566.21875 C 418.242188 566.480469 415.597656 566.675781 412.949219 566.804688 C 410.300781 566.933594 407.652344 567 405 567 C 402.347656 567 399.699219 566.933594 397.050781 566.804688 C 394.402344 566.675781 391.757812 566.480469 389.121094 566.21875 C 386.484375 565.960938 383.851562 565.636719 381.230469 565.246094 C 378.605469 564.859375 375.996094 564.40625 373.394531 563.886719 C 370.796875 563.371094 368.207031 562.789062 365.636719 562.144531 C 363.066406 561.5 360.511719 560.792969 357.972656 560.023438 C 355.4375 559.253906 352.921875 558.421875 350.421875 557.53125 C 347.925781 556.636719 345.453125 555.683594 343.003906 554.667969 C 340.554688 553.652344 338.132812 552.578125 335.734375 551.445312 C 333.339844 550.3125 330.972656 549.121094 328.632812 547.871094 C 326.296875 546.621094 323.988281 545.316406 321.714844 543.953125 C 319.441406 542.589844 317.203125 541.171875 314.996094 539.699219 C 312.792969 538.226562 310.625 536.699219 308.496094 535.121094 C 306.367188 533.539062 304.277344 531.910156 302.226562 530.226562 C 300.179688 528.546875 298.171875 526.816406 296.207031 525.035156 C 294.242188 523.253906 292.324219 521.425781 290.449219 519.550781 C 288.574219 517.675781 286.746094 515.757812 284.964844 513.792969 C 283.183594 511.828125 281.453125 509.820312 279.773438 507.773438 C 278.089844 505.722656 276.460938 503.632812 274.878906 501.503906 C 273.300781 499.375 271.773438 497.207031 270.300781 495.003906 C 268.828125 492.796875 267.410156 490.558594 266.046875 488.285156 C 264.683594 486.011719 263.378906 483.703125 262.128906 481.367188 C 260.878906 479.027344 259.6875 476.660156 258.554688 474.265625 C 257.421875 471.867188 256.347656 469.445312 255.332031 466.996094 C 254.316406 464.546875 253.363281 462.074219 252.46875 459.574219 C 251.578125 457.078125 250.746094 454.5625 249.976562 452.027344 C 249.207031 449.488281 248.5 446.933594 247.855469 444.363281 C 247.210938 441.789062 246.628906 439.203125 246.113281 436.605469 C 245.59375 434.003906 245.140625 431.394531 244.753906 428.769531 C 244.363281 426.148438 244.039062 423.515625 243.78125 420.878906 C 243.519531 418.242188 243.324219 415.597656 243.195312 412.949219 C 243.066406 410.300781 243 407.652344 243 405 C 243 402.347656 243.066406 399.699219 243.195312 397.050781 C 243.324219 394.402344 243.519531 391.757812 243.78125 389.121094 C 244.039062 386.484375 244.363281 383.851562 244.753906 381.230469 C 245.140625 378.605469 245.59375 375.996094 246.113281 373.394531 C 246.628906 370.796875 247.210938 368.207031 247.855469 365.636719 C 248.5 363.066406 249.207031 360.511719 249.976562 357.972656 C 250.746094 355.4375 251.578125 352.921875 252.46875 350.421875 C 253.363281 347.925781 254.316406 345.453125 255.332031 343.003906 C 256.347656 340.554688 257.421875 338.132812 258.554688 335.734375 C 259.6875 333.339844 260.878906 330.972656 262.128906 328.632812 C 263.378906 326.296875 264.683594 323.988281 266.046875 321.714844 C 267.410156 319.441406 268.828125 317.203125 270.300781 314.996094 C 271.773438 312.792969 273.300781 310.625 274.878906 308.496094 C 276.460938 306.367188 278.089844 304.277344 279.773438 302.226562 C 281.453125 300.179688 283.183594 298.171875 284.964844 296.207031 C 286.746094 294.242188 288.574219 292.324219 290.449219 290.449219 C 292.324219 288.574219 294.242188 286.746094 296.207031 284.964844 C 298.171875 283.183594 300.179688 281.453125 302.226562 279.773438 C 304.277344 278.089844 306.367188 276.460938 308.496094 274.878906 C 310.625 273.300781 312.792969 271.773438 314.996094 270.300781 C 317.203125 268.828125 319.441406 267.410156 321.714844 266.046875 C 323.988281 264.683594 326.296875 263.378906 328.632812 262.128906 C 330.972656 260.878906 333.339844 259.6875 335.734375 258.554688 C 338.132812 257.421875 340.554688 256.347656 343.003906 255.332031 C 345.453125 254.316406 347.925781 253.363281 350.421875 252.46875 C 352.921875 251.578125 355.4375 250.746094 357.972656 249.976562 C 360.511719 249.207031 363.066406 248.5 365.636719 247.855469 C 368.207031 247.210938 370.796875 246.628906 373.394531 246.113281 C 375.996094 245.59375 378.605469 245.140625 381.230469 244.753906 C 383.851562 244.363281 386.484375 244.039062 389.121094 243.78125 C 391.757812 243.519531 394.402344 243.324219 397.050781 243.195312 C 399.699219 243.066406 402.347656 243 405 243 Z M 405 243 " fill-opacity="1" fill-rule="nonzero"/><path fill="#00c4b2" d="M 405 258.980469 C 407.390625 258.980469 409.777344 259.039062 412.164062 259.15625 C 414.550781 259.273438 416.933594 259.449219 419.3125 259.683594 C 421.691406 259.917969 424.0625 260.210938 426.425781 260.558594 C 428.789062 260.910156 431.144531 261.320312 433.488281 261.785156 C 435.832031 262.25 438.160156 262.773438 440.480469 263.355469 C 442.796875 263.9375 445.101562 264.574219 447.386719 265.265625 C 449.675781 265.960938 451.941406 266.710938 454.191406 267.515625 C 456.441406 268.320312 458.671875 269.179688 460.878906 270.09375 C 463.085938 271.007812 465.269531 271.976562 467.429688 273 C 469.59375 274.019531 471.726562 275.09375 473.832031 276.222656 C 475.941406 277.347656 478.019531 278.527344 480.070312 279.753906 C 482.117188 280.984375 484.136719 282.261719 486.125 283.589844 C 488.113281 284.917969 490.066406 286.292969 491.984375 287.714844 C 493.902344 289.140625 495.785156 290.609375 497.632812 292.125 C 499.480469 293.640625 501.289062 295.203125 503.0625 296.804688 C 504.832031 298.410156 506.5625 300.058594 508.25 301.746094 C 509.941406 303.4375 511.589844 305.167969 513.195312 306.9375 C 514.796875 308.710938 516.359375 310.519531 517.875 312.367188 C 519.390625 314.214844 520.859375 316.097656 522.285156 318.015625 C 523.707031 319.933594 525.082031 321.886719 526.410156 323.875 C 527.738281 325.863281 529.015625 327.878906 530.246094 329.929688 C 531.472656 331.980469 532.652344 334.058594 533.777344 336.167969 C 534.90625 338.273438 535.980469 340.40625 537 342.566406 C 538.023438 344.730469 538.992188 346.914062 539.90625 349.121094 C 540.820312 351.328125 541.679688 353.558594 542.484375 355.808594 C 543.289062 358.058594 544.039062 360.324219 544.734375 362.613281 C 545.425781 364.898438 546.0625 367.203125 546.644531 369.519531 C 547.226562 371.839844 547.75 374.167969 548.214844 376.511719 C 548.679688 378.855469 549.089844 381.210938 549.441406 383.574219 C 549.789062 385.9375 550.082031 388.308594 550.316406 390.6875 C 550.550781 393.066406 550.726562 395.449219 550.84375 397.835938 C 550.960938 400.222656 551.019531 402.609375 551.019531 405 C 551.019531 407.390625 550.960938 409.777344 550.84375 412.164062 C 550.726562 414.550781 550.550781 416.933594 550.316406 419.3125 C 550.082031 421.691406 549.789062 424.0625 549.441406 426.425781 C 549.089844 428.789062 548.679688 431.144531 548.214844 433.488281 C 547.75 435.832031 547.226562 438.160156 546.644531 440.480469 C 546.0625 442.796875 545.425781 445.101562 544.734375 447.386719 C 544.039062 449.675781 543.289062 451.941406 542.484375 454.191406 C 541.679688 456.441406 540.820312 458.671875 539.90625 460.878906 C 538.992188 463.085938 538.023438 465.269531 537 467.433594 C 535.980469 469.59375 534.90625 471.726562 533.777344 473.832031 C 532.652344 475.941406 531.472656 478.019531 530.246094 480.070312 C 529.015625 482.117188 527.738281 484.136719 526.410156 486.125 C 525.082031 488.113281 523.707031 490.066406 522.285156 491.984375 C 520.859375 493.902344 519.390625 495.785156 517.875 497.632812 C 516.359375 499.480469 514.796875 501.289062 513.195312 503.0625 C 511.589844 504.832031 509.941406 506.5625 508.25 508.25 C 506.5625 509.941406 504.832031 511.589844 503.0625 513.195312 C 501.289062 514.796875 499.480469 516.359375 497.632812 517.875 C 495.785156 519.390625 493.902344 520.859375 491.984375 522.285156 C 490.066406 523.707031 488.113281 525.082031 486.125 526.410156 C 484.136719 527.738281 482.117188 529.015625 480.070312 530.246094 C 478.019531 531.472656 475.941406 532.652344 473.832031 533.777344 C 471.726562 534.90625 469.59375 535.980469 467.429688 537 C 465.269531 538.023438 463.085938 538.992188 460.878906 539.90625 C 458.671875 540.820312 456.441406 541.679688 454.191406 542.484375 C 451.941406 543.289062 449.675781 544.039062 447.386719 544.734375 C 445.101562 545.425781 442.796875 546.0625 440.480469 546.644531 C 438.160156 547.226562 435.832031 547.75 433.488281 548.214844 C 431.144531 548.679688 428.789062 549.089844 426.425781 549.441406 C 424.0625 549.789062 421.691406 550.082031 419.3125 550.316406 C 416.933594 550.550781 414.550781 550.726562 412.164062 550.84375 C 409.777344 550.960938 407.390625 551.019531 405 551.019531 C 402.609375 551.019531 400.222656 550.960938 397.835938 550.84375 C 395.449219 550.726562 393.066406 550.550781 390.6875 550.316406 C 388.308594 550.082031 385.9375 549.789062 383.574219 549.441406 C 381.210938 549.089844 378.855469 548.679688 376.511719 548.214844 C 374.167969 547.75 371.839844 547.226562 369.519531 546.644531 C 367.203125 546.0625 364.898438 545.425781 362.613281 544.734375 C 360.324219 544.039062 358.058594 543.289062 355.808594 542.484375 C 353.558594 541.679688 351.328125 540.820312 349.121094 539.90625 C 346.914062 538.992188 344.726562 538.023438 342.566406 537 C 340.40625 535.980469 338.273438 534.90625 336.167969 533.777344 C 334.058594 532.652344 331.980469 531.472656 329.929688 530.246094 C 327.878906 529.015625 325.863281 527.738281 323.875 526.410156 C 321.886719 525.082031 319.933594 523.707031 318.015625 522.285156 C 316.097656 520.859375 314.214844 519.390625 312.367188 517.875 C 310.519531 516.359375 308.710938 514.796875 306.9375 513.195312 C 305.167969 511.589844 303.4375 509.941406 301.746094 508.25 C 300.058594 506.5625 298.410156 504.832031 296.804688 503.0625 C 295.203125 501.289062 293.640625 499.480469 292.125 497.632812 C 290.609375 495.785156 289.140625 493.902344 287.714844 491.984375 C 286.292969 490.066406 284.917969 488.113281 283.589844 486.125 C 282.261719 484.136719 280.984375 482.117188 279.753906 480.070312 C 278.527344 478.019531 277.347656 475.941406 276.222656 473.832031 C 275.09375 471.726562 274.019531 469.59375 273 467.433594 C 271.976562 465.269531 271.007812 463.085938 270.09375 460.878906 C 269.179688 458.671875 268.320312 456.441406 267.515625 454.191406 C 266.710938 451.941406 265.960938 449.675781 265.265625 447.386719 C 264.574219 445.101562 263.9375 442.796875 263.355469 440.480469 C 262.773438 438.160156 262.25 435.832031 261.785156 433.488281 C 261.320312 431.144531 260.910156 428.789062 260.558594 426.425781 C 260.210938 424.0625 259.917969 421.691406 259.683594 419.3125 C 259.449219 416.933594 259.273438 414.550781 259.15625 412.164062 C 259.039062 409.777344 258.980469 407.390625 258.980469 405 C 258.980469 402.609375 259.039062 400.222656 259.15625 397.835938 C 259.273438 395.449219 259.449219 393.066406 259.683594 390.6875 C 259.917969 388.308594 260.210938 385.9375 260.558594 383.574219 C 260.910156 381.210938 261.320312 378.855469 261.785156 376.511719 C 262.25 374.167969 262.773438 371.839844 263.355469 369.519531 C 263.9375 367.203125 264.574219 364.898438 265.265625 362.613281 C 265.960938 360.324219 266.710938 358.058594 267.515625 355.808594 C 268.320312 353.558594 269.179688 351.328125 270.09375 349.121094 C 271.007812 346.914062 271.976562 344.730469 273 342.566406 C 274.019531 340.40625 275.09375 338.273438 276.222656 336.167969 C 277.347656 334.058594 278.527344 331.980469 279.753906 329.929688 C 280.984375 327.878906 282.261719 325.863281 283.589844 323.875 C 284.917969 321.886719 286.292969 319.933594 287.714844 318.015625 C 289.140625 316.097656 290.609375 314.214844 292.125 312.367188 C 293.640625 310.519531 295.203125 308.710938 296.804688 306.9375 C 298.410156 305.167969 300.058594 303.4375 301.746094 301.746094 C 303.4375 300.058594 305.167969 298.410156 306.9375 296.804688 C 308.710938 295.203125 310.519531 293.640625 312.367188 292.125 C 314.214844 290.609375 316.097656 289.140625 318.015625 287.714844 C 319.933594 286.292969 321.886719 284.917969 323.875 283.589844 C 325.863281 282.261719 327.878906 280.984375 329.929688 279.753906 C 331.980469 278.527344 334.058594 277.347656 336.167969 276.222656 C 338.273438 275.09375 340.40625 274.019531 342.566406 273 C 344.726562 271.976562 346.914062 271.007812 349.121094 270.09375 C 351.328125 269.179688 353.558594 268.320312 355.808594 267.515625 C 358.058594 266.710938 360.324219 265.960938 362.613281 265.265625 C 364.898438 264.574219 367.203125 263.9375 369.519531 263.355469 C 371.839844 262.773438 374.167969 262.25 376.511719 261.785156 C 378.855469 261.320312 381.210938 260.910156 383.574219 260.558594 C 385.9375 260.210938 388.308594 259.917969 390.6875 259.683594 C 393.066406 259.449219 395.449219 259.273438 397.835938 259.15625 C 400.222656 259.039062 402.609375 258.980469 405 258.980469 Z M 405 258.980469 " fill-opacity="1" fill-rule="nonzero"/><path fill="#ffffff" d="M 482.761719 372.292969 L 407.28125 325.125 C 406.582031 324.6875 405.820312 324.46875 404.996094 324.46875 C 404.167969 324.46875 403.40625 324.6875 402.707031 325.125 L 365.066406 348.648438 L 365.066406 339.796875 C 365.066406 339.304688 364.96875 338.832031 364.78125 338.378906 C 364.59375 337.925781 364.328125 337.523438 363.980469 337.179688 C 363.632812 336.832031 363.234375 336.5625 362.777344 336.375 C 362.324219 336.1875 361.851562 336.09375 361.363281 336.09375 L 347.421875 336.09375 C 346.929688 336.09375 346.457031 336.1875 346.003906 336.375 C 345.550781 336.5625 345.148438 336.832031 344.800781 337.179688 C 344.453125 337.523438 344.1875 337.925781 344 338.378906 C 343.8125 338.832031 343.71875 339.304688 343.71875 339.796875 L 343.71875 361.992188 L 327.238281 372.292969 C 326.605469 372.683594 326.105469 373.207031 325.746094 373.859375 C 325.382812 374.511719 325.203125 375.210938 325.203125 375.957031 L 325.203125 466.097656 C 325.203125 466.402344 325.234375 466.703125 325.292969 467 C 325.351562 467.296875 325.4375 467.585938 325.554688 467.867188 C 325.671875 468.148438 325.816406 468.414062 325.984375 468.667969 C 326.152344 468.921875 326.34375 469.15625 326.558594 469.371094 C 326.773438 469.585938 327.007812 469.777344 327.261719 469.945312 C 327.511719 470.113281 327.78125 470.257812 328.0625 470.375 C 328.339844 470.488281 328.632812 470.578125 328.929688 470.636719 C 329.226562 470.695312 329.527344 470.726562 329.832031 470.726562 L 377.859375 470.726562 C 378.160156 470.726562 378.464844 470.695312 378.761719 470.636719 C 379.058594 470.578125 379.347656 470.488281 379.628906 470.375 C 379.910156 470.257812 380.175781 470.113281 380.429688 469.945312 C 380.683594 469.777344 380.914062 469.585938 381.132812 469.371094 C 381.347656 469.15625 381.539062 468.921875 381.707031 468.667969 C 381.875 468.414062 382.019531 468.148438 382.132812 467.867188 C 382.25 467.585938 382.339844 467.296875 382.398438 467 C 382.457031 466.703125 382.488281 466.402344 382.488281 466.097656 L 382.488281 435.515625 C 382.488281 434.863281 382.519531 434.210938 382.582031 433.558594 C 382.648438 432.90625 382.742188 432.261719 382.871094 431.617188 C 383 430.976562 383.15625 430.34375 383.347656 429.71875 C 383.535156 429.089844 383.757812 428.476562 384.007812 427.871094 C 384.257812 427.265625 384.539062 426.675781 384.847656 426.097656 C 385.15625 425.519531 385.492188 424.960938 385.855469 424.417969 C 386.21875 423.871094 386.605469 423.347656 387.023438 422.839844 C 387.4375 422.335938 387.875 421.851562 388.339844 421.386719 C 388.800781 420.925781 389.285156 420.488281 389.792969 420.070312 C 390.296875 419.65625 390.824219 419.265625 391.367188 418.902344 C 391.910156 418.539062 392.472656 418.203125 393.046875 417.894531 C 393.625 417.585938 394.214844 417.308594 394.820312 417.058594 C 395.425781 416.808594 396.039062 416.585938 396.667969 416.398438 C 397.292969 416.207031 397.925781 416.046875 398.570312 415.921875 C 399.210938 415.792969 399.859375 415.695312 400.507812 415.632812 C 401.160156 415.570312 401.8125 415.535156 402.46875 415.535156 L 407.535156 415.535156 C 408.1875 415.535156 408.839844 415.570312 409.492188 415.632812 C 410.144531 415.695312 410.789062 415.792969 411.433594 415.921875 C 412.074219 416.046875 412.707031 416.207031 413.335938 416.398438 C 413.960938 416.585938 414.578125 416.808594 415.179688 417.058594 C 415.785156 417.308594 416.375 417.585938 416.953125 417.894531 C 417.53125 418.203125 418.089844 418.539062 418.636719 418.902344 C 419.179688 419.265625 419.703125 419.65625 420.210938 420.070312 C 420.714844 420.488281 421.199219 420.925781 421.664062 421.386719 C 422.125 421.851562 422.566406 422.335938 422.980469 422.839844 C 423.394531 423.347656 423.785156 423.871094 424.148438 424.417969 C 424.511719 424.960938 424.847656 425.519531 425.15625 426.097656 C 425.464844 426.675781 425.742188 427.265625 425.996094 427.871094 C 426.246094 428.476562 426.464844 429.089844 426.65625 429.71875 C 426.84375 430.34375 427.003906 430.976562 427.132812 431.617188 C 427.257812 432.261719 427.355469 432.90625 427.417969 433.558594 C 427.484375 434.210938 427.515625 434.863281 427.515625 435.515625 L 427.515625 466.097656 C 427.515625 466.402344 427.542969 466.703125 427.605469 467 C 427.664062 467.296875 427.75 467.585938 427.867188 467.867188 C 427.984375 468.148438 428.125 468.414062 428.296875 468.667969 C 428.464844 468.921875 428.65625 469.15625 428.871094 469.371094 C 429.085938 469.585938 429.320312 469.777344 429.574219 469.945312 C 429.824219 470.113281 430.089844 470.257812 430.371094 470.375 C 430.652344 470.488281 430.941406 470.578125 431.242188 470.636719 C 431.539062 470.695312 431.839844 470.726562 432.144531 470.726562 L 480.167969 470.726562 C 480.472656 470.726562 480.773438 470.695312 481.070312 470.636719 C 481.367188 470.578125 481.660156 470.488281 481.9375 470.375 C 482.21875 470.257812 482.488281 470.113281 482.738281 469.945312 C 482.992188 469.777344 483.226562 469.585938 483.441406 469.371094 C 483.65625 469.15625 483.847656 468.921875 484.015625 468.667969 C 484.183594 468.414062 484.328125 468.148438 484.445312 467.867188 C 484.558594 467.585938 484.648438 467.296875 484.707031 467 C 484.765625 466.703125 484.796875 466.402344 484.796875 466.097656 L 484.796875 375.957031 C 484.796875 375.210938 484.617188 374.511719 484.253906 373.859375 C 483.894531 373.207031 483.394531 372.6875 482.761719 372.292969 Z M 482.761719 372.292969 " fill-opacity="1" fill-rule="nonzero"/><g mask="url(#cdb1f729b0)"><g transform="matrix(1, 0, 0, 1, 278, 278)"><g clip-path="url(#dd7b8a7163)"><g clip-path="url(#bbe4f55a19)"><path fill="#ffffff" d="M 39.070312 174.515625 C 27.855469 179.640625 10.914062 175.238281 6.214844 163.035156 C -6.742188 129.386719 5.105469 90.949219 24.460938 62.285156 C 45.214844 31.558594 77.691406 11.605469 113.792969 4.070312 C 120.46875 2.675781 127.207031 1.710938 134.003906 1.175781 C 154.839844 -0.460938 189.664062 9.277344 179.402344 37.152344 C 167.390625 69.757812 58.59375 165.59375 39.070312 174.515625 Z M 39.070312 174.515625 " fill-opacity="1" fill-rule="nonzero"/></g></g></g></g><g fill="#004aad" fill-opacity="1"><g transform="translate(256.642373, 198.92046)"><g><path d="M 71.449219 -53.117188 L 72.695312 -53.117188 L 72.695312 -53.664062 L 39.546875 -53.664062 L 39.546875 -53.117188 L 40.792969 -53.117188 C 45.628906 -53.117188 47.191406 -51.558594 47.191406 -44.226562 L 47.191406 -25.972656 L 28.003906 -25.972656 L 28.003906 -44.226562 C 28.003906 -51.558594 29.640625 -53.117188 34.398438 -53.117188 L 35.644531 -53.117188 L 35.644531 -53.664062 L 2.496094 -53.664062 L 2.496094 -53.117188 L 3.742188 -53.117188 C 9.125 -53.117188 10.921875 -51.558594 10.921875 -44.226562 L 10.921875 -9.4375 C 10.921875 -2.105469 9.125 -0.546875 3.742188 -0.546875 L 2.496094 -0.546875 L 2.496094 0 L 35.644531 0 L 35.644531 -0.546875 L 34.398438 -0.546875 C 29.640625 -0.546875 28.003906 -2.105469 28.003906 -9.4375 L 28.003906 -25.273438 L 47.191406 -25.273438 L 47.191406 -9.4375 C 47.191406 -2.105469 45.628906 -0.546875 40.792969 -0.546875 L 39.546875 -0.546875 L 39.546875 0 L 72.695312 0 L 72.695312 -0.546875 L 71.449219 -0.546875 C 66.066406 -0.546875 64.273438 -2.105469 64.273438 -9.4375 L 64.273438 -44.226562 C 64.273438 -51.558594 66.066406 -53.117188 71.449219 -53.117188 Z M 71.449219 -53.117188 "/></g></g></g><g fill="#004aad" fill-opacity="1"><g transform="translate(331.834435, 198.92046)"><g><path d="M 34.476562 1.246094 C 16.066406 1.246094 4.289062 -6.707031 4.289062 -27.066406 C 4.289062 -46.175781 16.066406 -54.910156 34.476562 -54.910156 C 52.882812 -54.910156 64.660156 -46.175781 64.660156 -27.066406 C 64.660156 -6.707031 52.882812 1.246094 34.476562 1.246094 Z M 34.476562 -54.210938 C 24.023438 -54.210938 22.074219 -45.863281 22.074219 -26.832031 C 22.074219 -6.550781 24.023438 0.546875 34.476562 0.546875 C 44.929688 0.546875 46.878906 -6.550781 46.878906 -26.832031 C 46.878906 -45.863281 44.929688 -54.210938 34.476562 -54.210938 Z M 34.476562 -54.210938 "/></g></g></g><g fill="#004aad" fill-opacity="1"><g transform="translate(400.786492, 198.92046)"><g><path d="M 84.707031 -53.117188 L 85.957031 -53.117188 L 85.957031 -53.664062 L 60.136719 -53.664062 L 45.160156 -13.726562 L 28.546875 -53.664062 L 2.574219 -53.664062 L 2.574219 -53.117188 L 3.820312 -53.117188 C 8.65625 -53.117188 10.609375 -51.871094 10.921875 -46.332031 L 10.996094 -23.089844 C 10.996094 -14.820312 6.785156 -0.546875 1.246094 -0.546875 L 0 -0.546875 L 0 0 L 25.351562 0 L 25.351562 -0.546875 L 24.101562 -0.546875 C 16.691406 -0.546875 11.699219 -14.820312 11.699219 -23.089844 L 11.699219 -51.011719 L 30.964844 -3.976562 L 42.433594 -3.976562 L 60.449219 -52.183594 L 60.449219 -9.4375 C 60.449219 -2.105469 58.65625 -0.546875 53.273438 -0.546875 L 52.027344 -0.546875 L 52.027344 0 L 85.957031 0 L 85.957031 -0.546875 L 84.707031 -0.546875 C 79.324219 -0.546875 77.53125 -2.105469 77.53125 -9.4375 L 77.53125 -44.226562 C 77.53125 -51.558594 79.324219 -53.117188 84.707031 -53.117188 Z M 84.707031 -53.117188 "/></g></g></g><g fill="#004aad" fill-opacity="1"><g transform="translate(489.238583, 198.92046)"><g><path d="M 58.8125 -22.777344 C 54.988281 -11.855469 44.773438 -0.625 28.15625 -0.625 L 28.003906 -0.625 L 28.003906 -26.441406 C 36.191406 -26.207031 40.949219 -20.59375 42.199219 -12.167969 L 42.664062 -12.167969 L 42.664062 -42.042969 L 42.199219 -42.042969 C 40.949219 -33.226562 36.191406 -27.222656 28.003906 -26.988281 L 28.003906 -53.039062 L 29.5625 -53.039062 C 42.511719 -53.039062 55.847656 -43.289062 58.109375 -30.652344 L 58.578125 -30.652344 L 57.796875 -53.664062 L 2.496094 -53.664062 L 2.496094 -53.117188 L 3.742188 -53.117188 C 9.125 -53.117188 10.921875 -51.558594 10.921875 -44.226562 L 10.921875 -9.4375 C 10.921875 -2.105469 9.125 -0.546875 3.742188 -0.546875 L 2.496094 -0.546875 L 2.496094 0 L 57.953125 0 L 59.28125 -22.777344 Z M 58.8125 -22.777344 "/></g></g></g></svg>