<svg xmlns="http://www.w3.org/2000/svg" class="icon" width="879.875px" height="224.39999999999999px" viewBox="-189.9375 12.800000000000004 879.875 124.39999999999999" style="background: rgba(0, 0, 0, 0);" preserveAspectRatio="xMidYMid"><defs><filter id="editing-extrusion" x="-100%" y="-100%" width="500%" height="500%"><feFlood result="color1" flood-color="#444"/><feConvolveMatrix order="8,8" divisor="1" kernelMatrix="1 0 0 0 0 0 0 0 0 1 0 0 0 0 0 0 0 0 1 0 0 0 0 0 0 0 0 1 0 0 0 0 0 0 0 0 1 0 0 0 0 0 0 0 0 1 0 0 0 0 0 0 0 0 1 0 0 0 0 0 0 0 0 1" in="SourceAlpha" result="extrude"/><feComposite in="color1" in2="extrude" result="comp-extrude" operator="in"/><feOffset dx="4" dy="4" in="comp-extrude" result="offset-extrude"/><feMerge><feMergeNode in="offset-extrude"/><feMergeNode in="SourceGraphic"/></feMerge></filter></defs><g filter="url(#editing-extrusion)"><g transform="translate(-68.0650053024292, 104.7650032043457)"><path d="M35.78 0L27.13 0L11.25-14.22L11.25 0L5.13 0L5.13-46.09L11.25-46.09L11.25-20.16L25.84-33.28L34.50-33.28L16.63-17.22L35.78 0ZM69.69-27.13L69.69 0L63.53 0L63.53-27.13L46.38-27.13L46.38 0L40.25 0L40.25-33.28L46.38-33.28L46.38-27.41L46.38-27.41Q46.44-28.63 46.94-29.70L46.94-29.70L46.94-29.70Q47.44-30.78 48.27-31.58L48.27-31.58L48.27-31.58Q49.09-32.38 50.19-32.83L50.19-32.83L50.19-32.83Q51.28-33.28 52.53-33.28L52.53-33.28L63.53-33.28L63.53-33.28Q64.81-33.28 65.94-32.80L65.94-32.80L65.94-32.80Q67.06-32.31 67.89-31.48L67.89-31.48L67.89-31.48Q68.72-30.66 69.20-29.53L69.20-29.53L69.20-29.53Q69.69-28.41 69.69-27.13L69.69-27.13ZM108.72-27.13L108.72-6.16L108.72-6.16Q108.72-4.88 108.23-3.75L108.23-3.75L108.23-3.75Q107.75-2.63 106.92-1.80L106.92-1.80L106.92-1.80Q106.09-0.97 104.98-0.48L104.98-0.48L104.98-0.48Q103.88 0 102.59 0L102.59 0L86.06 0L86.06 0Q84.81 0 83.69-0.48L83.69-0.48L83.69-0.48Q82.56-0.97 81.73-1.80L81.73-1.80L81.73-1.80Q80.91-2.63 80.42-3.75L80.42-3.75L80.42-3.75Q79.94-4.88 79.94-6.16L79.94-6.16L79.94-27.13L79.94-27.13Q79.94-28.41 80.42-29.53L80.42-29.53L80.42-29.53Q80.91-30.66 81.73-31.48L81.73-31.48L81.73-31.48Q82.56-32.31 83.69-32.80L83.69-32.80L83.69-32.80Q84.81-33.28 86.06-33.28L86.06-33.28L102.59-33.28L102.59-33.28Q103.88-33.28 104.98-32.80L104.98-32.80L104.98-32.80Q106.09-32.31 106.92-31.48L106.92-31.48L106.92-31.48Q107.75-30.66 108.23-29.53L108.23-29.53L108.23-29.53Q108.72-28.41 108.72-27.13L108.72-27.13ZM102.59-27.13L86.06-27.13L86.06-6.16L102.59-6.16L102.59-27.13ZM132.28 0L125.88 0L115.13-33.28L121.34-33.28L129.22-8.19L136.56-33.28L142.84-33.28L150.19-8.19L158.06-33.28L164.28-33.28L153.53 0L147.13 0L139.69-24.44L132.28 0ZM170.69-46.09L176.81-46.09L176.81 0L170.69 0L170.69-46.09ZM215.22-27.13L215.22-13.50L193.19-13.50L193.19-6.16L215.22-6.16L215.22 0L193.19 0L193.19 0Q191.94 0 190.81-0.48L190.81-0.48L190.81-0.48Q189.69-0.97 188.86-1.80L188.86-1.80L188.86-1.80Q188.03-2.63 187.55-3.75L187.55-3.75L187.55-3.75Q187.06-4.88 187.06-6.16L187.06-6.16L187.06-27.13L187.06-27.13Q187.06-28.41 187.55-29.53L187.55-29.53L187.55-29.53Q188.03-30.66 188.86-31.48L188.86-31.48L188.86-31.48Q189.69-32.31 190.81-32.80L190.81-32.80L190.81-32.80Q191.94-33.28 193.19-33.28L193.19-33.28L209.06-33.28L209.06-33.28Q210.34-33.28 211.47-32.80L211.47-32.80L211.47-32.80Q212.59-32.31 213.42-31.48L213.42-31.48L213.42-31.48Q214.25-30.66 214.73-29.53L214.73-29.53L214.73-29.53Q215.22-28.41 215.22-27.13L215.22-27.13ZM209.06-27.13L193.19-27.13L193.19-19.66L209.06-19.66L209.06-27.13ZM225.47-6.16L225.47-27.13L225.47-27.13Q225.47-28.41 225.95-29.53L225.95-29.53L225.95-29.53Q226.44-30.66 227.27-31.48L227.27-31.48L227.27-31.48Q228.09-32.31 229.22-32.80L229.22-32.80L229.22-32.80Q230.34-33.28 231.59-33.28L231.59-33.28L248.75-33.28L248.75-46.09L254.91-46.09L254.91 0L248.75 0L248.75-5.63L248.75-5.63Q248.66-4.47 248.13-3.44L248.13-3.44L248.13-3.44Q247.59-2.41 246.77-1.64L246.77-1.64L246.77-1.64Q245.94-0.88 244.88-0.44L244.88-0.44L244.88-0.44Q243.81 0 242.63 0L242.63 0L231.59 0L231.59 0Q230.34 0 229.22-0.48L229.22-0.48L229.22-0.48Q228.09-0.97 227.27-1.80L227.27-1.80L227.27-1.80Q226.44-2.63 225.95-3.75L225.95-3.75L225.95-3.75Q225.47-4.88 225.47-6.16L225.47-6.16ZM231.59-27.13L231.59-6.16L248.75-6.16L248.75-27.13L231.59-27.13ZM265.16-7.44L265.16-27.13L265.16-27.13Q265.16-28.41 265.64-29.53L265.64-29.53L265.64-29.53Q266.13-30.66 266.95-31.48L266.95-31.48L266.95-31.48Q267.78-32.31 268.91-32.80L268.91-32.80L268.91-32.80Q270.03-33.28 271.28-33.28L271.28-33.28L282.31-33.28L282.31-33.28Q283.53-33.28 284.63-32.83L284.63-32.83L284.63-32.83Q285.72-32.38 286.55-31.58L286.55-31.58L286.55-31.58Q287.38-30.78 287.89-29.70L287.89-29.70L287.89-29.70Q288.41-28.63 288.44-27.41L288.44-27.41L288.44-33.28L294.59-33.28L294.59 7.28L294.59 7.28Q294.59 8.56 294.11 9.69L294.11 9.69L294.11 9.69Q293.63 10.81 292.80 11.64L292.80 11.64L292.80 11.64Q291.97 12.47 290.84 12.95L290.84 12.95L290.84 12.95Q289.72 13.44 288.44 13.44L288.44 13.44L269 13.44L269 7.28L288.44 7.28L288.44-1.28L271.28-1.28L271.28-1.28Q270.03-1.28 268.91-1.77L268.91-1.77L268.91-1.77Q267.78-2.25 266.95-3.08L266.95-3.08L266.95-3.08Q266.13-3.91 265.64-5.03L265.64-5.03L265.64-5.03Q265.16-6.16 265.16-7.44L265.16-7.44ZM271.28-7.44L288.44-7.44L288.44-27.13L271.28-27.13L271.28-7.44ZM333-27.13L333-13.50L310.97-13.50L310.97-6.16L333-6.16L333 0L310.97 0L310.97 0Q309.72 0 308.59-0.48L308.59-0.48L308.59-0.48Q307.47-0.97 306.64-1.80L306.64-1.80L306.64-1.80Q305.81-2.63 305.33-3.75L305.33-3.75L305.33-3.75Q304.84-4.88 304.84-6.16L304.84-6.16L304.84-27.13L304.84-27.13Q304.84-28.41 305.33-29.53L305.33-29.53L305.33-29.53Q305.81-30.66 306.64-31.48L306.64-31.48L306.64-31.48Q307.47-32.31 308.59-32.80L308.59-32.80L308.59-32.80Q309.72-33.28 310.97-33.28L310.97-33.28L326.84-33.28L326.84-33.28Q328.13-33.28 329.25-32.80L329.25-32.80L329.25-32.80Q330.38-32.31 331.20-31.48L331.20-31.48L331.20-31.48Q332.03-30.66 332.52-29.53L332.52-29.53L332.52-29.53Q333-28.41 333-27.13L333-27.13ZM326.84-27.13L310.97-27.13L310.97-19.66L326.84-19.66L326.84-27.13ZM378.19-21.56L378.19-14.97L343.25 0L343.25-6.53L371.22-18.25L343.25-30.03L343.25-36.53L378.19-21.56ZM420.81-21.56L420.81-14.97L385.88 0L385.88-6.53L413.84-18.25L385.88-30.03L385.88-36.53L420.81-21.56ZM468.94-27.13L454.88-27.13L454.88 0L448.72 0L448.72-27.13L434.63-27.13L434.63 0L428.50 0L428.50-33.28L434.63-33.28L434.63-27.41L434.63-27.41Q434.69-28.63 435.19-29.70L435.19-29.70L435.19-29.70Q435.69-30.78 436.52-31.58L436.52-31.58L436.52-31.58Q437.34-32.38 438.44-32.83L438.44-32.83L438.44-32.83Q439.53-33.28 440.78-33.28L440.78-33.28L448.72-33.28L448.72-33.28Q449.94-33.28 451.03-32.83L451.03-32.83L451.03-32.83Q452.13-32.38 452.97-31.58L452.97-31.58L452.97-31.58Q453.81-30.78 454.33-29.70L454.33-29.70L454.33-29.70Q454.84-28.63 454.88-27.41L454.88-27.41L454.88-27.41Q454.94-28.63 455.42-29.70L455.42-29.70L455.42-29.70Q455.91-30.78 456.73-31.58L456.73-31.58L456.73-31.58Q457.56-32.38 458.66-32.83L458.66-32.83L458.66-32.83Q459.75-33.28 461-33.28L461-33.28L468.94-33.28L468.94-33.28Q470.22-33.28 471.34-32.80L471.34-32.80L471.34-32.80Q472.47-32.31 473.30-31.48L473.30-31.48L473.30-31.48Q474.13-30.66 474.61-29.53L474.61-29.53L474.61-29.53Q475.09-28.41 475.09-27.13L475.09-27.13L475.09 0L468.94 0L468.94-27.13ZM514.13-27.13L514.13-6.16L514.13-6.16Q514.13-4.88 513.64-3.75L513.64-3.75L513.64-3.75Q513.16-2.63 512.33-1.80L512.33-1.80L512.33-1.80Q511.50-0.97 510.39-0.48L510.39-0.48L510.39-0.48Q509.28 0 508 0L508 0L491.47 0L491.47 0Q490.22 0 489.09-0.48L489.09-0.48L489.09-0.48Q487.97-0.97 487.14-1.80L487.14-1.80L487.14-1.80Q486.31-2.63 485.83-3.75L485.83-3.75L485.83-3.75Q485.34-4.88 485.34-6.16L485.34-6.16L485.34-27.13L485.34-27.13Q485.34-28.41 485.83-29.53L485.83-29.53L485.83-29.53Q486.31-30.66 487.14-31.48L487.14-31.48L487.14-31.48Q487.97-32.31 489.09-32.80L489.09-32.80L489.09-32.80Q490.22-33.28 491.47-33.28L491.47-33.28L508-33.28L508-33.28Q509.28-33.28 510.39-32.80L510.39-32.80L510.39-32.80Q511.50-32.31 512.33-31.48L512.33-31.48L512.33-31.48Q513.16-30.66 513.64-29.53L513.64-29.53L513.64-29.53Q514.13-28.41 514.13-27.13L514.13-27.13ZM508-27.13L491.47-27.13L491.47-6.16L508-6.16L508-27.13ZM553.81-27.13L553.81 0L547.66 0L547.66-27.13L530.50-27.13L530.50 0L524.38 0L524.38-33.28L530.50-33.28L530.50-27.41L530.50-27.41Q530.56-28.63 531.06-29.70L531.06-29.70L531.06-29.70Q531.56-30.78 532.39-31.58L532.39-31.58L532.39-31.58Q533.22-32.38 534.31-32.83L534.31-32.83L534.31-32.83Q535.41-33.28 536.66-33.28L536.66-33.28L547.66-33.28L547.66-33.28Q548.94-33.28 550.06-32.80L550.06-32.80L550.06-32.80Q551.19-32.31 552.02-31.48L552.02-31.48L552.02-31.48Q552.84-30.66 553.33-29.53L553.33-29.53L553.33-29.53Q553.81-28.41 553.81-27.13L553.81-27.13ZM592.22-27.13L592.22-13.50L570.19-13.50L570.19-6.16L592.22-6.16L592.22 0L570.19 0L570.19 0Q568.94 0 567.81-0.48L567.81-0.48L567.81-0.48Q566.69-0.97 565.86-1.80L565.86-1.80L565.86-1.80Q565.03-2.63 564.55-3.75L564.55-3.75L564.55-3.75Q564.06-4.88 564.06-6.16L564.06-6.16L564.06-27.13L564.06-27.13Q564.06-28.41 564.55-29.53L564.55-29.53L564.55-29.53Q565.03-30.66 565.86-31.48L565.86-31.48L565.86-31.48Q566.69-32.31 567.81-32.80L567.81-32.80L567.81-32.80Q568.94-33.28 570.19-33.28L570.19-33.28L586.06-33.28L586.06-33.28Q587.34-33.28 588.47-32.80L588.47-32.80L588.47-32.80Q589.59-32.31 590.42-31.48L590.42-31.48L590.42-31.48Q591.25-30.66 591.73-29.53L591.73-29.53L591.73-29.53Q592.22-28.41 592.22-27.13L592.22-27.13ZM586.06-27.13L570.19-27.13L570.19-19.66L586.06-19.66L586.06-27.13ZM610.84 13.44L604.72 13.44L611.69-3L598.63-33.28L605.09-33.28L614.81-10.38L624.53-33.28L631-33.28L610.84 13.44Z" fill="#ccc"/></g></g><style>text {
  font-size: 00px;
  font-family: Arial Black;
  dominant-baseline: central;
  text-anchor: middle;
}</style></svg>