<svg xmlns="http://www.w3.org/2000/svg" xmlns:xlink="http://www.w3.org/1999/xlink" width="1080" zoomAndPan="magnify" viewBox="0 0 810 809.999993" height="1080" preserveAspectRatio="xMidYMid meet" version="1.0"><defs><g/></defs><path fill="#d5d0ec" d="M 534.601562 405 C 534.601562 476.570312 476.570312 534.601562 405 534.601562 C 333.429688 534.601562 275.398438 476.570312 275.398438 405 C 275.398438 333.429688 333.429688 275.398438 405 275.398438 C 476.570312 275.398438 534.601562 333.429688 534.601562 405 " fill-opacity="1" fill-rule="nonzero"/><path fill="#8484ca" d="M 405 253.800781 C 321.617188 253.800781 253.800781 321.617188 253.800781 405 C 253.800781 488.382812 321.617188 556.199219 405 556.199219 C 488.382812 556.199219 556.199219 488.382812 556.199219 405 C 556.199219 321.617188 488.382812 253.800781 405 253.800781 Z M 405 567 C 315.667969 567 243 494.332031 243 405 C 243 315.667969 315.667969 243 405 243 C 494.332031 243 567 315.667969 567 405 C 567 494.332031 494.332031 567 405 567 " fill-opacity="1" fill-rule="nonzero"/><path fill="#5355af" d="M 405 394.199219 C 368.699219 394.199219 338.40625 419.785156 331.109375 453.894531 C 347.816406 476.613281 374.644531 491.398438 405 491.398438 C 435.355469 491.398438 462.183594 476.613281 478.890625 453.894531 C 471.59375 419.785156 441.300781 394.199219 405 394.199219 " fill-opacity="1" fill-rule="nonzero"/><path fill="#8484ca" d="M 367.199219 356.398438 C 367.199219 377.28125 384.117188 394.199219 405 394.199219 C 425.882812 394.199219 442.800781 377.28125 442.800781 356.398438 C 442.800781 335.515625 425.882812 318.601562 405 318.601562 C 384.117188 318.601562 367.199219 335.515625 367.199219 356.398438 " fill-opacity="1" fill-rule="nonzero"/><g fill="#004aad" fill-opacity="1"><g transform="translate(256.251173, 198.92046)"><g><path d="M 54.132812 -25.894531 C 50.386719 -13.414062 40.480469 -0.546875 28.15625 -0.546875 L 28.003906 -0.546875 L 28.003906 -44.226562 C 28.003906 -51.558594 29.796875 -53.117188 35.179688 -53.117188 L 36.425781 -53.117188 L 36.425781 -53.664062 L 2.496094 -53.664062 L 2.496094 -53.117188 L 3.742188 -53.117188 C 9.125 -53.117188 10.921875 -51.558594 10.921875 -44.226562 L 10.921875 -9.4375 C 10.921875 -2.105469 9.125 -0.546875 3.742188 -0.546875 L 2.496094 -0.546875 L 2.496094 0 L 54.054688 0 L 54.601562 -25.894531 Z M 54.132812 -25.894531 "/></g></g></g><g fill="#004aad" fill-opacity="1"><g transform="translate(313.269217, 198.92046)"><g><path d="M 34.476562 1.246094 C 16.066406 1.246094 4.289062 -6.707031 4.289062 -27.066406 C 4.289062 -46.175781 16.066406 -54.910156 34.476562 -54.910156 C 52.882812 -54.910156 64.660156 -46.175781 64.660156 -27.066406 C 64.660156 -6.707031 52.882812 1.246094 34.476562 1.246094 Z M 34.476562 -54.210938 C 24.023438 -54.210938 22.074219 -45.863281 22.074219 -26.832031 C 22.074219 -6.550781 24.023438 0.546875 34.476562 0.546875 C 44.929688 0.546875 46.878906 -6.550781 46.878906 -26.832031 C 46.878906 -45.863281 44.929688 -54.210938 34.476562 -54.210938 Z M 34.476562 -54.210938 "/></g></g></g><g fill="#004aad" fill-opacity="1"><g transform="translate(382.221275, 198.92046)"><g><path d="M 65.832031 -27.535156 L 35.023438 -27.535156 L 35.023438 -26.988281 L 36.269531 -26.988281 C 41.105469 -26.988281 42.664062 -25.429688 42.664062 -18.097656 L 42.664062 -0.859375 C 40.480469 0 38.21875 0.546875 35.179688 0.546875 C 24.023438 0.546875 22.074219 -6.550781 22.074219 -26.832031 C 22.074219 -45.863281 24.648438 -54.210938 35.566406 -54.210938 C 43.132812 -54.210938 49.84375 -45.707031 53.742188 -30.652344 L 54.210938 -30.652344 L 56.472656 -54.054688 L 56.003906 -54.054688 C 55.535156 -52.414062 54.367188 -52.183594 53.117188 -52.183594 C 49.609375 -52.183594 42.664062 -54.910156 35.566406 -54.910156 C 18.019531 -54.910156 4.289062 -46.175781 4.289062 -27.066406 C 4.289062 -6.707031 16.144531 1.246094 35.179688 1.246094 C 43.054688 1.246094 49.453125 -3.199219 54.210938 -3.199219 C 56.785156 -3.199219 58.03125 -2.339844 59.28125 0 L 59.746094 0 L 59.746094 -20.4375 C 59.746094 -25.816406 60.917969 -26.988281 64.585938 -26.988281 L 65.832031 -26.988281 Z M 65.832031 -27.535156 "/></g></g></g><g fill="#004aad" fill-opacity="1"><g transform="translate(449.145336, 198.92046)"><g><path d="M 35.179688 -53.117188 L 36.425781 -53.117188 L 36.425781 -53.664062 L 2.496094 -53.664062 L 2.496094 -53.117188 L 3.742188 -53.117188 C 9.125 -53.117188 10.921875 -51.558594 10.921875 -44.226562 L 10.921875 -9.4375 C 10.921875 -2.105469 9.125 -0.546875 3.742188 -0.546875 L 2.496094 -0.546875 L 2.496094 0 L 36.425781 0 L 36.425781 -0.546875 L 35.179688 -0.546875 C 29.796875 -0.546875 28.003906 -2.105469 28.003906 -9.4375 L 28.003906 -44.226562 C 28.003906 -51.558594 29.796875 -53.117188 35.179688 -53.117188 Z M 35.179688 -53.117188 "/></g></g></g><g fill="#004aad" fill-opacity="1"><g transform="translate(488.067354, 198.92046)"><g><path d="M 41.417969 -53.664062 L 41.417969 -53.117188 L 42.664062 -53.117188 C 50.464844 -53.117188 54.445312 -36.738281 54.445312 -29.015625 L 54.445312 -8.191406 L 29.484375 -53.664062 L 2.183594 -53.664062 L 2.183594 -53.117188 L 3.433594 -53.117188 C 8.347656 -53.117188 10.921875 -51.792969 11.308594 -46.019531 L 11.386719 -24.648438 C 11.386719 -16.925781 8.191406 -0.546875 1.480469 -0.546875 L 0.234375 -0.546875 L 0.234375 0 L 25.738281 0 L 25.738281 -0.546875 L 24.492188 -0.546875 C 16.691406 -0.546875 11.933594 -16.925781 11.933594 -24.648438 L 11.933594 -51.480469 L 39 0 L 54.988281 0 L 54.988281 -29.015625 C 54.988281 -36.738281 58.265625 -53.117188 64.972656 -53.117188 L 66.222656 -53.117188 L 66.222656 -53.664062 Z M 41.417969 -53.664062 "/></g></g></g></svg>