<svg xmlns="http://www.w3.org/2000/svg" xmlns:xlink="http://www.w3.org/1999/xlink" width="1080" zoomAndPan="magnify" viewBox="0 0 810 809.999993" height="1080" preserveAspectRatio="xMidYMid meet" version="1.0"><defs><g/></defs><path fill="#4377c3" d="M 396.476562 426.71875 C 395.515625 427.746094 394.539062 428.792969 393.644531 429.890625 C 403.296875 427.308594 410.230469 423.832031 411.140625 415.242188 C 410.296875 415.699219 409.503906 416.238281 408.679688 416.746094 C 405.808594 422.804688 403.699219 423.75 396.476562 426.71875 " fill-opacity="1" fill-rule="nonzero"/><path fill="#4377c3" d="M 523.175781 466.492188 C 489.8125 466.492188 465.902344 468.703125 447.1875 468.753906 C 444.570312 463.03125 438.816406 456.503906 432.1875 453.296875 C 426.902344 450.714844 421.351562 448.941406 415.648438 447.644531 C 409.808594 446.328125 403.9375 445.214844 398.335938 443.019531 C 396.527344 442.3125 394.824219 441.449219 393.273438 440.25 C 392.699219 439.796875 392.191406 439.289062 391.785156 438.765625 C 409.050781 436.066406 421.925781 430.246094 420.8125 411.5625 C 423.191406 410.839844 425.605469 410.316406 428.085938 410.011719 C 434.515625 414.839844 442.039062 418.011719 450.125 419.023438 C 454.171875 426.230469 464.71875 427.695312 471.03125 422.128906 C 492.242188 417.117188 494.285156 417.097656 499.835938 414.484375 C 521.773438 424.253906 526.113281 446.125 530.027344 456.382812 C 531.277344 459.675781 530.332031 463.050781 528.035156 465.414062 C 526.601562 466.105469 524.949219 466.492188 523.175781 466.492188 Z M 390.132812 437.535156 L 390.132812 437.519531 Z M 444.066406 490 C 443.644531 493.457031 442.007812 495.890625 438.953125 497.660156 C 431.308594 502.148438 294.824219 498.269531 291.652344 496.292969 C 290.015625 495.265625 289 493.949219 288.730469 492.023438 C 287.871094 485.863281 287.753906 479.6875 288.816406 473.546875 C 289.894531 467.351562 294.03125 463.167969 298.6875 459.507812 C 304.679688 454.816406 311.78125 452.519531 319.023438 450.5625 C 324.859375 448.992188 330.785156 447.8125 336.539062 445.957031 C 338.140625 445.449219 339.675781 444.824219 341.179688 444.082031 C 344.925781 442.191406 346.527344 439.054688 346.496094 434.96875 C 346.496094 434.3125 346.375 433.753906 345.953125 433.199219 C 340.671875 426.3125 337.734375 418.398438 335.796875 410.078125 C 335.542969 409.03125 335.15625 408.273438 334.292969 407.566406 C 329.519531 403.566406 326.007812 398.367188 325.972656 392.15625 C 325.957031 390.117188 327.660156 389.796875 330.515625 389.660156 C 330.09375 384.175781 328.828125 378.878906 329.214844 373.425781 C 329.703125 366.472656 331.457031 359.996094 336.21875 354.628906 C 341.027344 349.210938 347.355469 346.714844 354.257812 345.429688 C 364.363281 343.523438 373.847656 344.199219 382.625 349.546875 C 382.925781 349.75 383.347656 350.003906 383.890625 350.222656 C 386.910156 351.472656 389.542969 352.890625 391.804688 354.542969 C 396.496094 357.953125 399.632812 362.40625 401.339844 368.601562 C 401.960938 370.894531 402.332031 373.292969 402.234375 375.671875 C 402.113281 378.960938 402.351562 382.253906 402.148438 385.609375 C 402.925781 385.914062 403.785156 386.082031 404.679688 386.082031 C 405.980469 386.082031 407.175781 385.746094 408.171875 385.171875 C 408.070312 376.902344 408.324219 375.234375 410.789062 373.410156 C 409.253906 365.039062 404.882812 357.191406 399.363281 351.457031 C 398.6875 350.78125 398.015625 350.105469 397.320312 349.480469 C 391.5 343.792969 384.515625 340.234375 377.410156 338.125 C 358.964844 334.007812 342.175781 339.457031 332.503906 348.890625 C 325.90625 354.8125 321.214844 364.363281 319.613281 373.410156 C 321.046875 374.472656 322.027344 376.027344 322.027344 377.847656 L 322.027344 404.105469 C 322.027344 407.296875 319.207031 409.894531 315.699219 409.894531 C 312.746094 409.894531 310.382812 408.003906 309.691406 405.488281 C 301.050781 405.335938 294.097656 398.90625 294.097656 390.976562 C 294.097656 383.027344 301.050781 376.617188 309.691406 376.464844 C 310.113281 374.910156 311.15625 373.664062 312.625 372.886719 C 308.710938 337.113281 359.132812 309.722656 395.667969 332.875 C 398.046875 334.410156 400.257812 336.082031 402.265625 337.855469 C 403.785156 339.1875 405.203125 340.570312 406.433594 342.023438 C 407.648438 343.320312 408.710938 344.65625 409.675781 346.003906 C 411.125 348.0625 412.339844 350.140625 413.386719 352.148438 C 415.058594 355.503906 416.136719 358.730469 416.828125 361.632812 C 417.640625 365.140625 418.113281 369.410156 417.792969 372.886719 C 418.296875 373.140625 418.734375 373.476562 419.140625 373.832031 L 419.140625 373.847656 L 419.140625 373.832031 L 419.140625 373.847656 C 419.902344 374.558594 420.457031 375.453125 420.726562 376.464844 C 429.367188 376.617188 436.304688 383.046875 436.304688 390.976562 C 436.304688 394.183594 435.171875 397.152344 433.25 399.550781 C 430.414062 403.078125 425.875 405.40625 420.726562 405.488281 C 420.289062 407.109375 419.15625 408.441406 417.570312 409.203125 L 417.570312 413.21875 C 417.570312 429.265625 404.105469 433.5 388.613281 437.046875 C 388.109375 437.90625 387.617188 438.765625 387.144531 439.644531 C 387.652344 440.640625 388.410156 441.585938 389.457031 442.378906 C 390.992188 443.578125 392.714844 444.4375 394.519531 445.144531 C 400.105469 447.339844 405.980469 448.453125 411.816406 449.769531 C 417.519531 451.070312 423.074219 452.839844 428.371094 455.421875 C 434.988281 458.628906 439.695312 463.03125 442.3125 468.769531 C 443.964844 472.414062 444.773438 476.582031 444.691406 481.34375 C 444.621094 484.246094 444.453125 487.128906 444.066406 490 Z M 425.6875 373.664062 C 425.417969 372.652344 423.292969 370.84375 422.53125 370.121094 C 422.53125 360.113281 422.53125 356.855469 422.53125 353.515625 C 431.390625 308.710938 485.492188 309.890625 494.082031 353.546875 C 494.082031 366.878906 496.597656 384.851562 479.453125 399.179688 L 468.0625 401.859375 C 462.039062 400.273438 456.402344 402.535156 453.378906 406.6875 C 447.171875 405.691406 443.761719 404.359375 438.953125 400.191406 C 440.875 397.792969 442.140625 392.628906 442.140625 389.40625 C 442.140625 381.476562 434.328125 373.832031 425.6875 373.664062 Z M 410.164062 336.4375 C 410.621094 333.179688 412.59375 329.621094 414.164062 326.785156 C 420.472656 315.527344 431.425781 306.921875 443.847656 303.464844 C 459.960938 298.957031 478.019531 302.921875 491.332031 313.046875 C 499.433594 319.207031 506.015625 327.796875 508.171875 337.734375 C 509.304688 343 509.304688 348.789062 512.359375 353.195312 L 512.511719 353.394531 C 520.339844 352.570312 528.101562 359.523438 528.101562 367.386719 C 528.136719 375.265625 520.40625 382.253906 512.5625 381.441406 C 512.121094 383.332031 510.6875 384.953125 508.847656 385.59375 C 511.328125 392.53125 507.398438 400.460938 501.507812 404.882812 C 495.601562 409.304688 488.175781 411.042969 480.972656 412.644531 C 478.203125 413.269531 475.417969 413.894531 472.652344 414.515625 C 471.65625 414.738281 470.644531 414.957031 469.765625 415.496094 C 468.855469 416.054688 468.144531 416.898438 467.335938 417.605469 C 465.160156 419.53125 462.003906 420.40625 459.234375 419.496094 C 456.484375 418.601562 454.410156 415.714844 454.765625 412.847656 C 455.339844 408.289062 461.464844 406.25 465.664062 408.121094 C 466.679688 408.578125 467.640625 409.183594 468.738281 409.304688 C 469.5625 409.40625 470.390625 409.21875 471.199219 409.03125 C 474.945312 408.140625 478.691406 407.277344 482.4375 406.382812 C 487.804688 405.136719 493.375 403.785156 497.660156 400.34375 C 501.964844 396.898438 504.597656 390.722656 502.265625 385.730469 C 501.761719 384.648438 501.035156 383.652344 500.613281 382.539062 C 500.058594 381.070312 500.023438 379.453125 499.988281 377.863281 C 499.90625 371.519531 499.835938 365.175781 499.753906 358.8125 C 499.703125 355.726562 499.820312 352.265625 502.046875 350.121094 C 499.734375 337.332031 491.382812 325.753906 479.957031 319.5625 C 468.535156 313.351562 454.273438 312.644531 442.292969 317.671875 C 430.3125 322.699219 420.84375 333.382812 417.269531 345.871094 C 416.136719 344.03125 414.855469 342.277344 413.421875 340.65625 C 412.695312 339.828125 411.9375 339.050781 411.140625 338.308594 C 410.316406 337.535156 410.011719 337.515625 410.164062 336.4375 Z M 405 243 C 315.527344 243 243 315.527344 243 405 C 243 494.472656 315.527344 567 405 567 C 494.472656 567 567 494.472656 567 405 C 567 315.527344 494.472656 243 405 243 " fill-opacity="1" fill-rule="nonzero"/><g fill="#004aad" fill-opacity="1"><g transform="translate(185.156245, 198.92046)"><g><path d="M 33.382812 1.246094 C 15.601562 1.246094 4.289062 -6.707031 4.289062 -27.066406 C 4.289062 -46.175781 17.316406 -54.910156 33.617188 -54.910156 C 41.105469 -54.910156 47.65625 -52.105469 51.167969 -52.105469 C 52.414062 -52.105469 53.976562 -52.339844 54.445312 -54.054688 L 54.910156 -54.054688 L 53.351562 -30.652344 L 52.882812 -30.652344 C 48.046875 -44.382812 41.261719 -54.210938 33.695312 -54.210938 C 24.335938 -54.210938 22.074219 -45.863281 22.074219 -26.832031 C 22.074219 -6.550781 23.867188 0.546875 33.382812 0.546875 C 41.261719 0.546875 47.035156 -9.28125 52.882812 -23.011719 L 53.351562 -23.011719 L 54.835938 0.390625 L 54.367188 0.390625 C 53.898438 -1.246094 52.648438 -1.480469 51.089844 -1.480469 C 47.8125 -1.480469 40.714844 1.246094 33.382812 1.246094 Z M 33.382812 1.246094 "/></g></g></g><g fill="#004aad" fill-opacity="1"><g transform="translate(244.748295, 198.92046)"><g><path d="M 34.476562 1.246094 C 16.066406 1.246094 4.289062 -6.707031 4.289062 -27.066406 C 4.289062 -46.175781 16.066406 -54.910156 34.476562 -54.910156 C 52.882812 -54.910156 64.660156 -46.175781 64.660156 -27.066406 C 64.660156 -6.707031 52.882812 1.246094 34.476562 1.246094 Z M 34.476562 -54.210938 C 24.023438 -54.210938 22.074219 -45.863281 22.074219 -26.832031 C 22.074219 -6.550781 24.023438 0.546875 34.476562 0.546875 C 44.929688 0.546875 46.878906 -6.550781 46.878906 -26.832031 C 46.878906 -45.863281 44.929688 -54.210938 34.476562 -54.210938 Z M 34.476562 -54.210938 "/></g></g></g><g fill="#004aad" fill-opacity="1"><g transform="translate(313.700352, 198.92046)"><g><path d="M 41.417969 -53.664062 L 41.417969 -53.117188 L 42.664062 -53.117188 C 50.464844 -53.117188 54.445312 -36.738281 54.445312 -29.015625 L 54.445312 -8.191406 L 29.484375 -53.664062 L 2.183594 -53.664062 L 2.183594 -53.117188 L 3.433594 -53.117188 C 8.347656 -53.117188 10.921875 -51.792969 11.308594 -46.019531 L 11.386719 -24.648438 C 11.386719 -16.925781 8.191406 -0.546875 1.480469 -0.546875 L 0.234375 -0.546875 L 0.234375 0 L 25.738281 0 L 25.738281 -0.546875 L 24.492188 -0.546875 C 16.691406 -0.546875 11.933594 -16.925781 11.933594 -24.648438 L 11.933594 -51.480469 L 39 0 L 54.988281 0 L 54.988281 -29.015625 C 54.988281 -36.738281 58.265625 -53.117188 64.972656 -53.117188 L 66.222656 -53.117188 L 66.222656 -53.664062 Z M 41.417969 -53.664062 "/></g></g></g><g fill="#004aad" fill-opacity="1"><g transform="translate(379.376413, 198.92046)"><g><path d="M 55.613281 -29.328125 L 56.082031 -29.328125 L 55.300781 -53.664062 L 2.964844 -53.664062 L 2.183594 -29.328125 L 2.652344 -29.328125 C 4.757812 -39.15625 10.375 -50.542969 20.671875 -52.726562 L 20.671875 -9.4375 C 20.671875 -2.105469 18.875 -0.546875 14.585938 -0.546875 L 11.777344 -0.546875 L 11.777344 0 L 46.878906 0 L 46.878906 -0.546875 L 44.070312 -0.546875 C 39.46875 -0.546875 37.675781 -2.105469 37.675781 -9.4375 L 37.675781 -52.726562 C 47.890625 -50.464844 53.507812 -39.078125 55.613281 -29.328125 Z M 55.613281 -29.328125 "/></g></g></g><g fill="#004aad" fill-opacity="1"><g transform="translate(437.64247, 198.92046)"><g><path d="M 68.25 -0.546875 C 65.128906 -0.546875 62.164062 -1.324219 59.59375 -7.722656 L 40.871094 -53.664062 L 23.011719 -53.664062 L 26.363281 -45.238281 L 14.820312 -16.925781 C 10.21875 -5.695312 4.757812 -1.246094 0.3125 -0.546875 L 0.3125 0 L 25.972656 0 L 25.972656 -0.546875 C 17.082031 -0.546875 14.742188 -11.230469 17.394531 -20.902344 L 36.113281 -20.902344 L 40.871094 -9.046875 C 42.976562 -3.589844 39.78125 -0.546875 34.242188 -0.546875 L 34.242188 0 L 69.03125 0 L 69.03125 -0.546875 Z M 17.628906 -21.527344 C 17.863281 -22.386719 18.175781 -23.242188 18.484375 -24.023438 L 26.753906 -44.304688 L 35.878906 -21.527344 Z M 17.628906 -21.527344 "/></g></g></g><g fill="#004aad" fill-opacity="1"><g transform="translate(506.98453, 198.92046)"><g><path d="M 33.382812 1.246094 C 15.601562 1.246094 4.289062 -6.707031 4.289062 -27.066406 C 4.289062 -46.175781 17.316406 -54.910156 33.617188 -54.910156 C 41.105469 -54.910156 47.65625 -52.105469 51.167969 -52.105469 C 52.414062 -52.105469 53.976562 -52.339844 54.445312 -54.054688 L 54.910156 -54.054688 L 53.351562 -30.652344 L 52.882812 -30.652344 C 48.046875 -44.382812 41.261719 -54.210938 33.695312 -54.210938 C 24.335938 -54.210938 22.074219 -45.863281 22.074219 -26.832031 C 22.074219 -6.550781 23.867188 0.546875 33.382812 0.546875 C 41.261719 0.546875 47.035156 -9.28125 52.882812 -23.011719 L 53.351562 -23.011719 L 54.835938 0.390625 L 54.367188 0.390625 C 53.898438 -1.246094 52.648438 -1.480469 51.089844 -1.480469 C 47.8125 -1.480469 40.714844 1.246094 33.382812 1.246094 Z M 33.382812 1.246094 "/></g></g></g><g fill="#004aad" fill-opacity="1"><g transform="translate(566.576591, 198.92046)"><g><path d="M 55.613281 -29.328125 L 56.082031 -29.328125 L 55.300781 -53.664062 L 2.964844 -53.664062 L 2.183594 -29.328125 L 2.652344 -29.328125 C 4.757812 -39.15625 10.375 -50.542969 20.671875 -52.726562 L 20.671875 -9.4375 C 20.671875 -2.105469 18.875 -0.546875 14.585938 -0.546875 L 11.777344 -0.546875 L 11.777344 0 L 46.878906 0 L 46.878906 -0.546875 L 44.070312 -0.546875 C 39.46875 -0.546875 37.675781 -2.105469 37.675781 -9.4375 L 37.675781 -52.726562 C 47.890625 -50.464844 53.507812 -39.078125 55.613281 -29.328125 Z M 55.613281 -29.328125 "/></g></g></g></svg>