<svg xmlns="http://www.w3.org/2000/svg" xmlns:xlink="http://www.w3.org/1999/xlink" width="1080" zoomAndPan="magnify" viewBox="0 0 810 809.999993" height="1080" preserveAspectRatio="xMidYMid meet" version="1.0"><defs><g/></defs><path fill="#00bf63" d="M 567 405 C 567 407.652344 566.933594 410.300781 566.804688 412.949219 C 566.675781 415.597656 566.480469 418.242188 566.21875 420.878906 C 565.960938 423.515625 565.636719 426.148438 565.246094 428.769531 C 564.859375 431.394531 564.40625 434.003906 563.886719 436.605469 C 563.371094 439.203125 562.789062 441.789062 562.144531 444.363281 C 561.5 446.933594 560.792969 449.488281 560.023438 452.027344 C 559.253906 454.5625 558.421875 457.078125 557.53125 459.574219 C 556.636719 462.074219 555.683594 464.546875 554.667969 466.996094 C 553.652344 469.445312 552.578125 471.867188 551.445312 474.265625 C 550.3125 476.660156 549.121094 479.027344 547.871094 481.367188 C 546.621094 483.703125 545.316406 486.011719 543.953125 488.285156 C 542.589844 490.558594 541.171875 492.796875 539.699219 495.003906 C 538.226562 497.207031 536.699219 499.375 535.121094 501.503906 C 533.539062 503.632812 531.910156 505.722656 530.226562 507.773438 C 528.546875 509.820312 526.816406 511.828125 525.035156 513.792969 C 523.253906 515.757812 521.425781 517.675781 519.550781 519.550781 C 517.675781 521.425781 515.757812 523.253906 513.792969 525.035156 C 511.828125 526.816406 509.820312 528.546875 507.773438 530.226562 C 505.722656 531.910156 503.632812 533.539062 501.503906 535.121094 C 499.375 536.699219 497.207031 538.226562 495.003906 539.699219 C 492.796875 541.171875 490.558594 542.589844 488.285156 543.953125 C 486.011719 545.316406 483.703125 546.621094 481.367188 547.871094 C 479.027344 549.121094 476.660156 550.3125 474.265625 551.445312 C 471.867188 552.578125 469.445312 553.652344 466.996094 554.667969 C 464.546875 555.683594 462.074219 556.636719 459.574219 557.53125 C 457.078125 558.421875 454.5625 559.253906 452.027344 560.023438 C 449.488281 560.792969 446.933594 561.5 444.363281 562.144531 C 441.789062 562.789062 439.203125 563.371094 436.605469 563.886719 C 434.003906 564.40625 431.394531 564.859375 428.769531 565.246094 C 426.148438 565.636719 423.515625 565.960938 420.878906 566.21875 C 418.242188 566.480469 415.597656 566.675781 412.949219 566.804688 C 410.300781 566.933594 407.652344 567 405 567 C 402.347656 567 399.699219 566.933594 397.050781 566.804688 C 394.402344 566.675781 391.757812 566.480469 389.121094 566.21875 C 386.484375 565.960938 383.851562 565.636719 381.230469 565.246094 C 378.605469 564.859375 375.996094 564.40625 373.394531 563.886719 C 370.796875 563.371094 368.207031 562.789062 365.636719 562.144531 C 363.066406 561.5 360.511719 560.792969 357.972656 560.023438 C 355.4375 559.253906 352.921875 558.421875 350.421875 557.53125 C 347.925781 556.636719 345.453125 555.683594 343.003906 554.667969 C 340.554688 553.652344 338.132812 552.578125 335.734375 551.445312 C 333.339844 550.3125 330.972656 549.121094 328.632812 547.871094 C 326.296875 546.621094 323.988281 545.316406 321.714844 543.953125 C 319.441406 542.589844 317.203125 541.171875 314.996094 539.699219 C 312.792969 538.226562 310.625 536.699219 308.496094 535.121094 C 306.367188 533.539062 304.277344 531.910156 302.226562 530.226562 C 300.179688 528.546875 298.171875 526.816406 296.207031 525.035156 C 294.242188 523.253906 292.324219 521.425781 290.449219 519.550781 C 288.574219 517.675781 286.746094 515.757812 284.964844 513.792969 C 283.183594 511.828125 281.453125 509.820312 279.773438 507.773438 C 278.089844 505.722656 276.460938 503.632812 274.878906 501.503906 C 273.300781 499.375 271.773438 497.207031 270.300781 495.003906 C 268.828125 492.796875 267.410156 490.558594 266.046875 488.285156 C 264.683594 486.011719 263.378906 483.703125 262.128906 481.367188 C 260.878906 479.027344 259.6875 476.660156 258.554688 474.265625 C 257.421875 471.867188 256.347656 469.445312 255.332031 466.996094 C 254.316406 464.546875 253.363281 462.074219 252.46875 459.574219 C 251.578125 457.078125 250.746094 454.5625 249.976562 452.027344 C 249.207031 449.488281 248.5 446.933594 247.855469 444.363281 C 247.210938 441.789062 246.628906 439.203125 246.113281 436.605469 C 245.59375 434.003906 245.140625 431.394531 244.753906 428.769531 C 244.363281 426.148438 244.039062 423.515625 243.78125 420.878906 C 243.519531 418.242188 243.324219 415.597656 243.195312 412.949219 C 243.066406 410.300781 243 407.652344 243 405 C 243 402.347656 243.066406 399.699219 243.195312 397.050781 C 243.324219 394.402344 243.519531 391.757812 243.78125 389.121094 C 244.039062 386.484375 244.363281 383.851562 244.753906 381.230469 C 245.140625 378.605469 245.59375 375.996094 246.113281 373.394531 C 246.628906 370.796875 247.210938 368.210938 247.855469 365.636719 C 248.5 363.066406 249.207031 360.511719 249.976562 357.972656 C 250.746094 355.4375 251.578125 352.921875 252.46875 350.425781 C 253.363281 347.925781 254.316406 345.453125 255.332031 343.003906 C 256.347656 340.554688 257.421875 338.132812 258.554688 335.734375 C 259.6875 333.339844 260.878906 330.972656 262.128906 328.632812 C 263.378906 326.296875 264.683594 323.988281 266.046875 321.714844 C 267.410156 319.441406 268.828125 317.203125 270.300781 314.996094 C 271.773438 312.792969 273.300781 310.625 274.878906 308.496094 C 276.460938 306.367188 278.089844 304.277344 279.773438 302.226562 C 281.453125 300.179688 283.183594 298.171875 284.964844 296.207031 C 286.746094 294.242188 288.574219 292.324219 290.449219 290.449219 C 292.324219 288.574219 294.242188 286.746094 296.207031 284.964844 C 298.171875 283.183594 300.179688 281.453125 302.226562 279.773438 C 304.277344 278.089844 306.367188 276.460938 308.496094 274.878906 C 310.625 273.300781 312.792969 271.773438 314.996094 270.300781 C 317.203125 268.828125 319.441406 267.410156 321.714844 266.046875 C 323.988281 264.683594 326.296875 263.378906 328.632812 262.128906 C 330.972656 260.878906 333.339844 259.6875 335.734375 258.554688 C 338.132812 257.421875 340.554688 256.347656 343.003906 255.332031 C 345.453125 254.316406 347.925781 253.363281 350.421875 252.46875 C 352.921875 251.578125 355.4375 250.746094 357.972656 249.976562 C 360.511719 249.207031 363.066406 248.5 365.636719 247.855469 C 368.207031 247.210938 370.796875 246.628906 373.394531 246.113281 C 375.996094 245.59375 378.605469 245.140625 381.230469 244.753906 C 383.851562 244.363281 386.484375 244.039062 389.121094 243.78125 C 391.757812 243.519531 394.402344 243.324219 397.050781 243.195312 C 399.699219 243.066406 402.347656 243 405 243 C 407.652344 243 410.300781 243.066406 412.949219 243.195312 C 415.597656 243.324219 418.242188 243.519531 420.878906 243.78125 C 423.515625 244.039062 426.148438 244.363281 428.769531 244.753906 C 431.394531 245.140625 434.003906 245.59375 436.605469 246.113281 C 439.203125 246.628906 441.789062 247.210938 444.363281 247.855469 C 446.933594 248.5 449.488281 249.207031 452.027344 249.976562 C 454.5625 250.746094 457.078125 251.578125 459.574219 252.46875 C 462.074219 253.363281 464.546875 254.316406 466.996094 255.332031 C 469.445312 256.347656 471.867188 257.421875 474.265625 258.554688 C 476.660156 259.6875 479.027344 260.878906 481.367188 262.128906 C 483.703125 263.378906 486.011719 264.683594 488.285156 266.046875 C 490.558594 267.410156 492.796875 268.828125 495.003906 270.300781 C 497.207031 271.773438 499.375 273.300781 501.503906 274.878906 C 503.632812 276.460938 505.722656 278.089844 507.773438 279.773438 C 509.820312 281.453125 511.828125 283.183594 513.792969 284.964844 C 515.757812 286.746094 517.675781 288.574219 519.550781 290.449219 C 521.425781 292.324219 523.253906 294.242188 525.035156 296.207031 C 526.816406 298.171875 528.546875 300.179688 530.226562 302.226562 C 531.910156 304.277344 533.539062 306.367188 535.121094 308.496094 C 536.699219 310.625 538.226562 312.792969 539.699219 314.996094 C 541.171875 317.203125 542.589844 319.441406 543.953125 321.714844 C 545.316406 323.988281 546.621094 326.296875 547.871094 328.632812 C 549.121094 330.972656 550.3125 333.339844 551.445312 335.734375 C 552.578125 338.132812 553.652344 340.554688 554.667969 343.003906 C 555.683594 345.453125 556.636719 347.925781 557.53125 350.425781 C 558.421875 352.921875 559.253906 355.4375 560.023438 357.972656 C 560.792969 360.511719 561.5 363.066406 562.144531 365.636719 C 562.789062 368.210938 563.371094 370.796875 563.886719 373.394531 C 564.40625 375.996094 564.859375 378.605469 565.246094 381.230469 C 565.636719 383.851562 565.960938 386.484375 566.21875 389.121094 C 566.480469 391.757812 566.675781 394.402344 566.804688 397.050781 C 566.933594 399.699219 567 402.347656 567 405 Z M 567 405 " fill-opacity="1" fill-rule="nonzero"/><path fill="#ffffff" d="M 409.984375 429.671875 L 392.238281 411.925781 L 375.105469 429.0625 L 384.21875 423.835938 C 389.566406 420.675781 396.613281 422.621094 399.652344 427.96875 L 413.628906 452.152344 L 490.800781 452.152344 L 450.574219 411.925781 C 450.210938 412.171875 435.019531 427.96875 431.371094 431.007812 C 425.296875 436.113281 415.574219 435.261719 409.984375 429.671875 Z M 384.339844 482.65625 C 352.863281 482.65625 316.648438 427.726562 305.464844 389.929688 C 298.054688 364.652344 300.847656 346.421875 313.367188 338.28125 C 317.742188 335.484375 324.667969 331.71875 329.40625 328.921875 C 334.753906 325.882812 341.804688 327.828125 344.84375 333.054688 L 353.59375 348.246094 C 368.175781 348.246094 492.015625 347.878906 495.296875 348.367188 C 502.832031 349.460938 508.664062 356.023438 508.664062 363.800781 L 508.664062 446.199219 C 508.664062 454.949219 501.496094 461.875 493.109375 461.875 L 416.910156 461.875 C 416.667969 465.523438 414.480469 468.925781 411.320312 470.746094 C 406.824219 473.421875 399.53125 477.796875 395.15625 479.984375 C 391.875 481.808594 388.230469 482.65625 384.339844 482.65625 Z M 318.59375 346.542969 C 310.207031 352.011719 308.746094 366.839844 314.824219 387.136719 C 326.003906 424.929688 360.882812 472.933594 384.339844 472.933594 C 386.648438 472.933594 388.714844 472.449219 390.660156 471.476562 L 406.457031 462.363281 C 407.671875 461.632812 407.1875 460.417969 406.578125 459.445312 L 391.265625 432.832031 C 390.78125 431.980469 389.808594 431.859375 389.078125 432.222656 C 386.285156 433.800781 376.683594 440 373.886719 440.242188 C 369.390625 440.488281 366.109375 439.394531 361.976562 436.355469 C 351.648438 428.699219 341.683594 412.414062 337.066406 399.289062 C 335 392.605469 332.445312 384.339844 336.335938 377.777344 C 337.308594 376.320312 338.523438 375.105469 340.101562 374.253906 C 341.441406 373.402344 351.527344 367.933594 352.132812 367.082031 C 352.5 366.597656 352.621094 365.867188 352.253906 365.382812 L 336.457031 337.914062 C 335.972656 337.066406 335 336.941406 334.269531 337.429688 Z M 498.941406 446.5625 L 498.941406 363.558594 L 457.378906 405 Z M 361.007812 361.128906 C 362.101562 363.195312 362.464844 365.625 362.101562 367.933594 L 416.910156 422.742188 C 419.339844 425.175781 423.59375 425.175781 425.902344 422.742188 L 490.800781 357.96875 L 359.183594 357.96875 Z M 356.386719 376.074219 L 344.964844 382.636719 C 343.871094 383.246094 343.871094 387.984375 345.449219 393.574219 C 348.972656 405.609375 357.601562 418.976562 364.53125 425.902344 L 385.433594 405 Z M 356.386719 376.074219 " fill-opacity="1" fill-rule="evenodd"/><g fill="#004aad" fill-opacity="1"><g transform="translate(185.156245, 198.92046)"><g><path d="M 33.382812 1.246094 C 15.601562 1.246094 4.289062 -6.707031 4.289062 -27.066406 C 4.289062 -46.175781 17.316406 -54.910156 33.617188 -54.910156 C 41.105469 -54.910156 47.65625 -52.105469 51.167969 -52.105469 C 52.414062 -52.105469 53.976562 -52.339844 54.445312 -54.054688 L 54.910156 -54.054688 L 53.351562 -30.652344 L 52.882812 -30.652344 C 48.046875 -44.382812 41.261719 -54.210938 33.695312 -54.210938 C 24.335938 -54.210938 22.074219 -45.863281 22.074219 -26.832031 C 22.074219 -6.550781 23.867188 0.546875 33.382812 0.546875 C 41.261719 0.546875 47.035156 -9.28125 52.882812 -23.011719 L 53.351562 -23.011719 L 54.835938 0.390625 L 54.367188 0.390625 C 53.898438 -1.246094 52.648438 -1.480469 51.089844 -1.480469 C 47.8125 -1.480469 40.714844 1.246094 33.382812 1.246094 Z M 33.382812 1.246094 "/></g></g></g><g fill="#004aad" fill-opacity="1"><g transform="translate(244.748295, 198.92046)"><g><path d="M 34.476562 1.246094 C 16.066406 1.246094 4.289062 -6.707031 4.289062 -27.066406 C 4.289062 -46.175781 16.066406 -54.910156 34.476562 -54.910156 C 52.882812 -54.910156 64.660156 -46.175781 64.660156 -27.066406 C 64.660156 -6.707031 52.882812 1.246094 34.476562 1.246094 Z M 34.476562 -54.210938 C 24.023438 -54.210938 22.074219 -45.863281 22.074219 -26.832031 C 22.074219 -6.550781 24.023438 0.546875 34.476562 0.546875 C 44.929688 0.546875 46.878906 -6.550781 46.878906 -26.832031 C 46.878906 -45.863281 44.929688 -54.210938 34.476562 -54.210938 Z M 34.476562 -54.210938 "/></g></g></g><g fill="#004aad" fill-opacity="1"><g transform="translate(313.700352, 198.92046)"><g><path d="M 41.417969 -53.664062 L 41.417969 -53.117188 L 42.664062 -53.117188 C 50.464844 -53.117188 54.445312 -36.738281 54.445312 -29.015625 L 54.445312 -8.191406 L 29.484375 -53.664062 L 2.183594 -53.664062 L 2.183594 -53.117188 L 3.433594 -53.117188 C 8.347656 -53.117188 10.921875 -51.792969 11.308594 -46.019531 L 11.386719 -24.648438 C 11.386719 -16.925781 8.191406 -0.546875 1.480469 -0.546875 L 0.234375 -0.546875 L 0.234375 0 L 25.738281 0 L 25.738281 -0.546875 L 24.492188 -0.546875 C 16.691406 -0.546875 11.933594 -16.925781 11.933594 -24.648438 L 11.933594 -51.480469 L 39 0 L 54.988281 0 L 54.988281 -29.015625 C 54.988281 -36.738281 58.265625 -53.117188 64.972656 -53.117188 L 66.222656 -53.117188 L 66.222656 -53.664062 Z M 41.417969 -53.664062 "/></g></g></g><g fill="#004aad" fill-opacity="1"><g transform="translate(379.376413, 198.92046)"><g><path d="M 55.613281 -29.328125 L 56.082031 -29.328125 L 55.300781 -53.664062 L 2.964844 -53.664062 L 2.183594 -29.328125 L 2.652344 -29.328125 C 4.757812 -39.15625 10.375 -50.542969 20.671875 -52.726562 L 20.671875 -9.4375 C 20.671875 -2.105469 18.875 -0.546875 14.585938 -0.546875 L 11.777344 -0.546875 L 11.777344 0 L 46.878906 0 L 46.878906 -0.546875 L 44.070312 -0.546875 C 39.46875 -0.546875 37.675781 -2.105469 37.675781 -9.4375 L 37.675781 -52.726562 C 47.890625 -50.464844 53.507812 -39.078125 55.613281 -29.328125 Z M 55.613281 -29.328125 "/></g></g></g><g fill="#004aad" fill-opacity="1"><g transform="translate(437.64247, 198.92046)"><g><path d="M 68.25 -0.546875 C 65.128906 -0.546875 62.164062 -1.324219 59.59375 -7.722656 L 40.871094 -53.664062 L 23.011719 -53.664062 L 26.363281 -45.238281 L 14.820312 -16.925781 C 10.21875 -5.695312 4.757812 -1.246094 0.3125 -0.546875 L 0.3125 0 L 25.972656 0 L 25.972656 -0.546875 C 17.082031 -0.546875 14.742188 -11.230469 17.394531 -20.902344 L 36.113281 -20.902344 L 40.871094 -9.046875 C 42.976562 -3.589844 39.78125 -0.546875 34.242188 -0.546875 L 34.242188 0 L 69.03125 0 L 69.03125 -0.546875 Z M 17.628906 -21.527344 C 17.863281 -22.386719 18.175781 -23.242188 18.484375 -24.023438 L 26.753906 -44.304688 L 35.878906 -21.527344 Z M 17.628906 -21.527344 "/></g></g></g><g fill="#004aad" fill-opacity="1"><g transform="translate(506.98453, 198.92046)"><g><path d="M 33.382812 1.246094 C 15.601562 1.246094 4.289062 -6.707031 4.289062 -27.066406 C 4.289062 -46.175781 17.316406 -54.910156 33.617188 -54.910156 C 41.105469 -54.910156 47.65625 -52.105469 51.167969 -52.105469 C 52.414062 -52.105469 53.976562 -52.339844 54.445312 -54.054688 L 54.910156 -54.054688 L 53.351562 -30.652344 L 52.882812 -30.652344 C 48.046875 -44.382812 41.261719 -54.210938 33.695312 -54.210938 C 24.335938 -54.210938 22.074219 -45.863281 22.074219 -26.832031 C 22.074219 -6.550781 23.867188 0.546875 33.382812 0.546875 C 41.261719 0.546875 47.035156 -9.28125 52.882812 -23.011719 L 53.351562 -23.011719 L 54.835938 0.390625 L 54.367188 0.390625 C 53.898438 -1.246094 52.648438 -1.480469 51.089844 -1.480469 C 47.8125 -1.480469 40.714844 1.246094 33.382812 1.246094 Z M 33.382812 1.246094 "/></g></g></g><g fill="#004aad" fill-opacity="1"><g transform="translate(566.576591, 198.92046)"><g><path d="M 55.613281 -29.328125 L 56.082031 -29.328125 L 55.300781 -53.664062 L 2.964844 -53.664062 L 2.183594 -29.328125 L 2.652344 -29.328125 C 4.757812 -39.15625 10.375 -50.542969 20.671875 -52.726562 L 20.671875 -9.4375 C 20.671875 -2.105469 18.875 -0.546875 14.585938 -0.546875 L 11.777344 -0.546875 L 11.777344 0 L 46.878906 0 L 46.878906 -0.546875 L 44.070312 -0.546875 C 39.46875 -0.546875 37.675781 -2.105469 37.675781 -9.4375 L 37.675781 -52.726562 C 47.890625 -50.464844 53.507812 -39.078125 55.613281 -29.328125 Z M 55.613281 -29.328125 "/></g></g></g></svg>