<svg xmlns="http://www.w3.org/2000/svg" xmlns:xlink="http://www.w3.org/1999/xlink" width="1080" zoomAndPan="magnify" viewBox="0 0 810 809.999993" height="1080" preserveAspectRatio="xMidYMid meet" version="1.0"><path fill="#1b9df0" d="M 567 405 C 567 407.652344 566.933594 410.300781 566.804688 412.949219 C 566.675781 415.597656 566.480469 418.242188 566.21875 420.878906 C 565.960938 423.515625 565.636719 426.148438 565.246094 428.769531 C 564.859375 431.394531 564.40625 434.003906 563.886719 436.605469 C 563.371094 439.203125 562.789062 441.789062 562.144531 444.363281 C 561.5 446.933594 560.792969 449.488281 560.023438 452.027344 C 559.253906 454.5625 558.421875 457.078125 557.53125 459.574219 C 556.636719 462.074219 555.683594 464.546875 554.667969 466.996094 C 553.652344 469.445312 552.578125 471.867188 551.445312 474.265625 C 550.3125 476.660156 549.121094 479.027344 547.871094 481.367188 C 546.621094 483.703125 545.316406 486.011719 543.953125 488.285156 C 542.589844 490.558594 541.171875 492.796875 539.699219 495.003906 C 538.226562 497.207031 536.699219 499.375 535.121094 501.503906 C 533.539062 503.632812 531.910156 505.722656 530.226562 507.773438 C 528.546875 509.820312 526.816406 511.828125 525.035156 513.792969 C 523.253906 515.757812 521.425781 517.675781 519.550781 519.550781 C 517.675781 521.425781 515.757812 523.253906 513.792969 525.035156 C 511.828125 526.816406 509.820312 528.546875 507.773438 530.226562 C 505.722656 531.910156 503.632812 533.539062 501.503906 535.121094 C 499.375 536.699219 497.207031 538.226562 495.003906 539.699219 C 492.796875 541.171875 490.558594 542.589844 488.285156 543.953125 C 486.011719 545.316406 483.703125 546.621094 481.367188 547.871094 C 479.027344 549.121094 476.660156 550.3125 474.265625 551.445312 C 471.867188 552.578125 469.445312 553.652344 466.996094 554.667969 C 464.546875 555.683594 462.074219 556.636719 459.574219 557.53125 C 457.078125 558.421875 454.5625 559.253906 452.027344 560.023438 C 449.488281 560.792969 446.933594 561.5 444.363281 562.144531 C 441.789062 562.789062 439.203125 563.371094 436.605469 563.886719 C 434.003906 564.40625 431.394531 564.859375 428.769531 565.246094 C 426.148438 565.636719 423.515625 565.960938 420.878906 566.21875 C 418.242188 566.480469 415.597656 566.675781 412.949219 566.804688 C 410.300781 566.933594 407.652344 567 405 567 C 402.347656 567 399.699219 566.933594 397.050781 566.804688 C 394.402344 566.675781 391.757812 566.480469 389.121094 566.21875 C 386.484375 565.960938 383.851562 565.636719 381.230469 565.246094 C 378.605469 564.859375 375.996094 564.40625 373.394531 563.886719 C 370.796875 563.371094 368.210938 562.789062 365.636719 562.144531 C 363.066406 561.5 360.511719 560.792969 357.972656 560.023438 C 355.4375 559.253906 352.921875 558.421875 350.421875 557.53125 C 347.925781 556.636719 345.453125 555.683594 343.003906 554.667969 C 340.554688 553.652344 338.132812 552.578125 335.734375 551.445312 C 333.339844 550.3125 330.972656 549.121094 328.632812 547.871094 C 326.296875 546.621094 323.988281 545.316406 321.714844 543.953125 C 319.441406 542.589844 317.203125 541.171875 314.996094 539.699219 C 312.792969 538.226562 310.625 536.699219 308.496094 535.121094 C 306.367188 533.539062 304.277344 531.910156 302.226562 530.226562 C 300.179688 528.546875 298.171875 526.816406 296.207031 525.035156 C 294.242188 523.253906 292.324219 521.425781 290.449219 519.550781 C 288.574219 517.675781 286.746094 515.757812 284.964844 513.792969 C 283.183594 511.828125 281.453125 509.820312 279.773438 507.773438 C 278.089844 505.722656 276.460938 503.632812 274.878906 501.503906 C 273.300781 499.375 271.773438 497.207031 270.300781 495.003906 C 268.828125 492.796875 267.410156 490.558594 266.046875 488.285156 C 264.683594 486.011719 263.378906 483.703125 262.128906 481.367188 C 260.878906 479.027344 259.6875 476.660156 258.554688 474.265625 C 257.421875 471.867188 256.347656 469.445312 255.332031 466.996094 C 254.316406 464.546875 253.363281 462.074219 252.46875 459.574219 C 251.578125 457.078125 250.746094 454.5625 249.976562 452.027344 C 249.207031 449.488281 248.5 446.933594 247.855469 444.363281 C 247.210938 441.789062 246.628906 439.203125 246.113281 436.605469 C 245.59375 434.003906 245.140625 431.394531 244.753906 428.769531 C 244.363281 426.148438 244.039062 423.515625 243.78125 420.878906 C 243.519531 418.242188 243.324219 415.597656 243.195312 412.949219 C 243.066406 410.300781 243 407.652344 243 405 C 243 402.347656 243.066406 399.699219 243.195312 397.050781 C 243.324219 394.402344 243.519531 391.757812 243.78125 389.121094 C 244.039062 386.484375 244.363281 383.851562 244.753906 381.230469 C 245.140625 378.605469 245.59375 375.996094 246.113281 373.394531 C 246.628906 370.796875 247.210938 368.210938 247.855469 365.636719 C 248.5 363.066406 249.207031 360.511719 249.976562 357.972656 C 250.746094 355.4375 251.578125 352.921875 252.46875 350.425781 C 253.363281 347.925781 254.316406 345.453125 255.332031 343.003906 C 256.347656 340.554688 257.421875 338.132812 258.554688 335.734375 C 259.6875 333.339844 260.878906 330.972656 262.128906 328.632812 C 263.378906 326.296875 264.683594 323.988281 266.046875 321.714844 C 267.410156 319.441406 268.828125 317.203125 270.300781 314.996094 C 271.773438 312.792969 273.300781 310.625 274.878906 308.496094 C 276.460938 306.367188 278.089844 304.277344 279.773438 302.226562 C 281.453125 300.179688 283.183594 298.171875 284.964844 296.207031 C 286.746094 294.242188 288.574219 292.324219 290.449219 290.449219 C 292.324219 288.574219 294.242188 286.746094 296.207031 284.964844 C 298.171875 283.183594 300.179688 281.453125 302.226562 279.773438 C 304.277344 278.089844 306.367188 276.460938 308.496094 274.878906 C 310.625 273.300781 312.792969 271.773438 314.996094 270.300781 C 317.203125 268.828125 319.441406 267.410156 321.714844 266.046875 C 323.988281 264.683594 326.296875 263.378906 328.632812 262.128906 C 330.972656 260.878906 333.339844 259.6875 335.734375 258.554688 C 338.132812 257.421875 340.554688 256.347656 343.003906 255.332031 C 345.453125 254.316406 347.925781 253.363281 350.421875 252.46875 C 352.921875 251.578125 355.4375 250.746094 357.972656 249.976562 C 360.511719 249.207031 363.066406 248.5 365.636719 247.855469 C 368.210938 247.210938 370.796875 246.628906 373.394531 246.113281 C 375.996094 245.59375 378.605469 245.140625 381.230469 244.753906 C 383.851562 244.363281 386.484375 244.039062 389.121094 243.78125 C 391.757812 243.519531 394.402344 243.324219 397.050781 243.195312 C 399.699219 243.066406 402.347656 243 405 243 C 407.652344 243 410.300781 243.066406 412.949219 243.195312 C 415.597656 243.324219 418.242188 243.519531 420.878906 243.78125 C 423.515625 244.039062 426.148438 244.363281 428.769531 244.753906 C 431.394531 245.140625 434.003906 245.59375 436.605469 246.113281 C 439.203125 246.628906 441.789062 247.210938 444.363281 247.855469 C 446.933594 248.5 449.488281 249.207031 452.027344 249.976562 C 454.5625 250.746094 457.078125 251.578125 459.574219 252.46875 C 462.074219 253.363281 464.546875 254.316406 466.996094 255.332031 C 469.445312 256.347656 471.867188 257.421875 474.265625 258.554688 C 476.660156 259.6875 479.027344 260.878906 481.367188 262.128906 C 483.703125 263.378906 486.011719 264.683594 488.285156 266.046875 C 490.558594 267.410156 492.796875 268.828125 495.003906 270.300781 C 497.207031 271.773438 499.375 273.300781 501.503906 274.878906 C 503.632812 276.460938 505.722656 278.089844 507.773438 279.773438 C 509.820312 281.453125 511.828125 283.183594 513.792969 284.964844 C 515.757812 286.746094 517.675781 288.574219 519.550781 290.449219 C 521.425781 292.324219 523.253906 294.242188 525.035156 296.207031 C 526.816406 298.171875 528.546875 300.179688 530.226562 302.226562 C 531.910156 304.277344 533.539062 306.367188 535.121094 308.496094 C 536.699219 310.625 538.226562 312.792969 539.699219 314.996094 C 541.171875 317.203125 542.589844 319.441406 543.953125 321.714844 C 545.316406 323.988281 546.621094 326.296875 547.871094 328.632812 C 549.121094 330.972656 550.3125 333.339844 551.445312 335.734375 C 552.578125 338.132812 553.652344 340.554688 554.667969 343.003906 C 555.683594 345.453125 556.636719 347.925781 557.53125 350.421875 C 558.421875 352.921875 559.253906 355.4375 560.023438 357.972656 C 560.792969 360.511719 561.5 363.066406 562.144531 365.636719 C 562.789062 368.210938 563.371094 370.796875 563.886719 373.394531 C 564.40625 375.996094 564.859375 378.605469 565.246094 381.230469 C 565.636719 383.851562 565.960938 386.484375 566.21875 389.121094 C 566.480469 391.757812 566.675781 394.402344 566.804688 397.050781 C 566.933594 399.699219 567 402.347656 567 405 Z M 567 405 " fill-opacity="1" fill-rule="nonzero"/><path fill="#ffffff" d="M 375.355469 490.453125 C 447.199219 490.453125 486.484375 430.921875 486.484375 379.324219 C 486.484375 377.621094 486.484375 375.921875 486.40625 374.300781 C 494.019531 368.792969 500.660156 361.90625 505.925781 354.050781 C 498.960938 357.128906 491.425781 359.234375 483.488281 360.207031 C 491.589844 355.347656 497.746094 347.734375 500.660156 338.578125 C 493.128906 343.035156 484.785156 346.273438 475.875 348.058594 C 468.746094 340.441406 458.621094 335.746094 447.363281 335.746094 C 425.816406 335.746094 408.320312 353.242188 408.320312 374.785156 C 408.320312 377.863281 408.644531 380.863281 409.375 383.695312 C 376.894531 382.078125 348.136719 366.523438 328.859375 342.871094 C 325.539062 348.625 323.59375 355.347656 323.59375 362.476562 C 323.59375 376.003906 330.480469 387.988281 341.011719 394.957031 C 334.609375 394.792969 328.617188 393.011719 323.351562 390.097656 C 323.351562 390.257812 323.351562 390.421875 323.351562 390.582031 C 323.351562 409.535156 336.796875 425.25 354.699219 428.894531 C 351.457031 429.785156 347.976562 430.273438 344.410156 430.273438 C 341.902344 430.273438 339.472656 430.027344 337.039062 429.542969 C 341.980469 445.09375 356.398438 456.355469 373.492188 456.679688 C 360.125 467.128906 343.277344 473.363281 324.972656 473.363281 C 321.8125 473.363281 318.734375 473.203125 315.65625 472.796875 C 332.746094 483.976562 353.320312 490.453125 375.355469 490.453125 " fill-opacity="1" fill-rule="nonzero"/></svg>